<?xml version="1.0" encoding="UTF-8"?>
<svg width="205px" height="186px" viewBox="0 0 205 186" version="1.1" xmlns="http://www.w3.org/2000/svg" xmlns:xlink="http://www.w3.org/1999/xlink">
    <!-- Generator: Sketch 55.2 (78181) - https://sketchapp.com -->
    <title>logo</title>
    <desc>Created with Sketch.</desc>
    <g id="Page-1" stroke="none" stroke-width="1" fill="none" fill-rule="evenodd">
        <g id="Artboard" transform="translate(-1726.000000, -2299.000000)" fill-rule="nonzero">
            <g id="Group-4" transform="translate(1265.000000, 2090.000000)">
                <g id="Group" transform="translate(463.636364, 209.638554)">
                    <g id="logo">
                        <polygon id="Path" fill="#CFAF4E" points="157.886154 168.570492 147.451858 147.908482 127.673737 104.139384 152.262753 96.6940111 156.539104 121.475207 161.627961 142.68791 170.715206 158.107321 177.920857 159.47304 185.40447 169.121185"></polygon>
                        <polygon id="Path" fill="#CFAF4E" points="118.71962 168.001178 111.233648 146.251787 93.5881416 103.325358 97.8658401 70.8553669 87.7063062 51.5935077 92.2406666 30.1302933 106.421237 12.5194506 124.858117 4.55054434 141.968911 2.61335165 157.753619 10.6042715 167.913153 17.7586763 179.933485 15.2711448 186.884745 16.3718225 186.628083 30.1302933 182.350385 34.5330039 167.37844 31.7813098 164.170166 37.0205354 166.030965 45.8259568 176.725211 43.3384252 179.676823 52.9803616 177.003262 61.2354441 178.864061 72.7925596 174.586362 84.349675 154.010633 104.161873 136.087076 110.2156 126.996967 127.276104 126.996967 141.584914 133.691565 158.359241 147.594085 165.799822"></polygon>
                        <polygon id="Path" fill="#CFAF4E" points="66.7886077 168.374513 49.5892196 124.904908 72.1634165 99.3073627 94.7376135 119.952674 91.2332381 134.259127 86.1379194 140.025728 70.8089647 138.661112 71.3464456 145.26409 79.150668 159.834662 85.6004385 161.221287 92.58769 167.274017"></polygon>
                        <polygon id="Path" fill="#CFAF4E" points="14.0626145 170.987865 14.5967388 153.190097 18.3356093 130.438764 23.420473 129.079821 30.3640895 128.24692 35.4275883 112.640996 40.2347074 101.944801 52.7973119 93.1774273 71.2139193 87.1498582 82.4305306 82.7661715 93.6471418 69.0671508 106.209746 75.0947199 99.8002542 120.860408 72.5599127 124.411195 59.7409284 137.562255 44.5077021 141.68292 30.8982138 142.230881 27.4157231 157.836805 37.307706 166.056218"></polygon>
                        <path d="M44.602016,76.1605338 L36.2667427,68.045945 L39.2639407,54.5070487 L48.8462234,62.4247877 C48.8462234,62.4247877 49.1087517,73.9733131 44.602016,76.1605338 Z" id="Path" fill="#CFAF4E"></path>
                        <path d="M142.625647,166.507834 C142.087649,163.497217 135.911428,161.189811 133.178396,160.596478 L131.672001,160.266848 L130.961843,158.860429 C130.961843,158.860429 127.217375,151.366851 124.742582,146.290557 C121.923471,140.533028 121.772832,134.577721 124.183064,123.480194 C126.593297,112.382667 144.433322,100.603905 146.434676,99.3073627 L149.877865,104.889089 C145.01436,107.987607 132.05936,117.656739 130.509925,124.886613 C128.357931,134.401919 128.357931,139.060683 130.509925,143.301916 C132.339119,147.059692 134.813911,152.092036 136.062068,154.531295 C139.634377,155.542158 147.790432,158.57475 148.974028,165.299192 L142.625647,166.507834 Z" id="Path" fill="#000000"></path>
                        <path d="M117.342073,169.867857 C115.583285,169.867857 114.15089,168.415583 114.127439,166.608248 C113.993128,163.996717 113.598156,161.40627 112.948741,158.877688 C110.219305,150.148823 106.785583,141.669356 102.683345,133.527618 C94.8396394,117.383742 93.360908,108.045402 93.2966154,107.648963 C93.1166871,106.46868 93.5631322,105.279404 94.4677792,104.529125 C95.3724261,103.778845 96.5978374,103.581547 97.6824126,104.011551 C98.7669877,104.441555 99.5459539,105.433533 99.7258821,106.613817 C99.7258821,106.767988 101.204613,115.423572 108.512547,130.554326 C112.828002,139.102102 116.413275,148.018744 119.227991,157.203835 C120.035603,160.267926 120.509984,163.414632 120.64243,166.586224 C120.618978,168.405722 119.176989,169.867857 117.406365,169.867857 L117.342073,169.867857 Z" id="Path" fill="#000000"></path>
                        <path d="M153.032182,166.507834 C152.438098,163.589531 151.370018,160.795999 149.873153,158.245481 C146.569569,152.366051 143.652975,146.263832 141.143133,139.980172 L131.004356,115.347344 L136.895519,112.747457 L147.141019,137.380285 C149.543481,143.367572 152.316927,149.188967 155.444143,154.808342 C157.442988,158.190702 158.81799,161.925787 159.499654,165.824813 L153.032182,166.507834 Z" id="Path" fill="#000000"></path>
                        <path d="M180.370583,167.254506 L179.880536,165.990271 C179.220039,163.772315 173.275563,160.99987 168.332487,159.757814 L167.352394,159.49166 L166.691897,158.693195 C160.898966,151.526821 156.759185,143.074854 154.589881,133.985165 C152.160956,121.564611 148.070134,99.6733854 148.027521,99.4515898 L154.291592,98.1873549 C154.291592,98.4091505 158.425027,120.366915 160.853953,132.632212 C162.705811,140.27105 166.129884,147.399853 170.889251,153.525358 C174.553945,154.545618 183.928746,157.761654 185.803706,163.772315 L186.144608,164.637318 L180.370583,167.254506 Z" id="Path" fill="#000000"></path>
                        <path d="M17.9032066,166.507834 L11.4721329,165.631141 L12.4367939,158.705269 C12.6511631,155.395754 12.7583476,152.130074 12.8440953,149.06165 C13.2085228,138.387916 13.4657657,130.673021 16.9599824,127.144333 C19.1036737,124.952601 21.8475985,125.456699 24.3557172,125.829294 C26.8638359,126.201888 28.1929245,126.333392 28.7502842,125.544369 C29.7334093,123.551324 30.3785328,121.402128 30.6581694,119.188347 C31.6508152,112.885623 33.8822772,106.853895 37.2178646,101.457237 C43.241637,92.1862122 57.5829313,88.3068472 69.0945533,84.9973323 C71.602672,84.2959782 73.9821693,83.6165414 76.1258605,82.9590218 C85.9439664,79.8467629 89.6525522,67.3319749 89.6739891,67.200471 L95.8478199,69.063443 C95.6548877,69.7209625 91.0888254,85.0850016 78.0337457,89.2273745 C75.8900545,89.9287286 73.3604988,90.6081654 70.7666324,91.4191062 C60.3054192,94.3341093 47.1860289,97.9943012 42.5556558,105.183181 C39.7150539,109.869909 37.8064748,115.083441 36.9391848,120.525303 C36.5525958,123.678875 35.5307,126.716248 33.938017,129.445651 C31.0440339,133.45652 26.4565346,132.777083 23.43393,132.338737 C22.7289287,132.186052 22.0108446,132.105293 21.2902387,132.097646 C19.8110918,134.289378 19.5538488,142.596041 19.3180428,149.280823 C19.2108582,152.458834 19.1036737,155.856018 18.8893046,159.253202 L18.8893046,159.472375 L17.9032066,166.507834 Z" id="Path" fill="#000000"></path>
                        <path d="M32.6562704,167.254506 C32.0519679,165.41482 27.886597,162.545787 25.102489,161.166023 L22.9442658,160.092873 L26.6564098,138.191855 L29.6779223,138.520371 C36.1525921,139.243104 54.3032497,139.505916 59.7419723,132.212878 C67.6410694,121.612785 71.0294799,119.926407 77.8710476,119.926407 C82.9860367,119.926407 100.553974,119.094168 100.726632,119.094168 L101.028783,125.664473 C100.294987,125.664473 83.1371123,126.518613 77.8710476,126.518613 C73.8135879,126.518613 72.1301737,126.518613 64.9217081,136.198863 C57.7132424,145.879113 39.5194204,145.791508 32.0088034,145.331587 L30.1311492,156.282096 C33.0015861,157.968474 37.5554372,161.144122 38.7640422,165.042503 L32.6562704,167.254506 Z" id="Path" fill="#000000"></path>
                        <path d="M62.606113,166.507834 C61.9726805,164.043584 61.1285195,161.635612 60.0825229,159.309286 L52.1797012,141.43181 L58.2894457,138.880973 L66.1701306,156.801683 C67.4782172,159.665948 68.494039,162.649138 69.2028661,165.707995 L62.606113,166.507834 Z" id="Path" fill="#000000"></path>
                        <path d="M88.0847042,167.254506 C87.4351461,165.050975 81.5891233,162.715232 77.8866421,162.010102 L76.5225702,161.767713 L75.7647524,160.577807 C71.0013264,153.262084 65.5883423,143.610618 66.7791988,139.203556 C68.1432708,134.091364 73.9243378,135.060918 78.5578522,135.832153 C80.2250513,136.118613 85.2916044,136.97799 85.9195105,136.140648 C88.474439,132.769245 90.7262404,124.57211 91.3757985,121.70752 L97.6981639,123.183886 C97.4383407,124.395828 94.9267161,135.082953 91.0510194,140.17311 C88.0414003,144.139465 82.3902449,143.191947 77.5185592,142.376641 C76.087034,142.106268 74.6410457,141.922319 73.188172,141.825758 C75.1097985,146.739305 77.5413769,151.430026 80.4415706,155.81818 C84.1873556,156.699592 92.5883069,159.321794 94.3204618,165.44761 L88.0847042,167.254506 Z" id="Path" fill="#000000"></path>
                        <path d="M136.152238,40.3193265 C132.669965,40.36638 129.373705,38.6742612 127.272449,35.7609307 C125.744153,33.1711112 125.405131,29.9982977 126.348913,27.1178057 C127.292694,24.2373137 129.419537,21.9535638 132.142688,20.8965965 C134.5937,20.2031911 137.204157,20.5100801 139.448046,21.7554247 C140.911201,22.6618318 141.424885,24.6225417 140.608818,26.1860437 C139.792751,27.7495457 137.941321,28.3518226 136.425139,27.5470097 C135.673072,27.1497631 134.81652,27.0258277 133.99002,27.19467 C133.759103,27.19467 133.108338,27.5029673 132.457574,28.8903051 C131.855309,29.8128224 131.855309,31.0287397 132.457574,31.9512569 C133.503047,33.214434 135.069895,33.8636712 136.656056,33.6909346 C138.373264,33.4828117 139.932805,34.756324 140.161788,36.5536952 C140.372032,38.358523 139.152277,40.0022333 137.432775,40.2312416 C137.008136,40.2889968 136.58043,40.3184176 136.152238,40.3193265 Z" id="Path" fill="#000000"></path>
                        <path d="M178.137765,63.4671115 L176.160232,63.0064702 C168.722988,61.2297106 150.92519,56.184591 146.60471,47.7614346 C141.811341,38.4608662 145.400994,32.7576875 149.850444,27.2738617 C153.010198,23.3693778 153.655045,16.5474986 153.246642,11.9191497 L152.816743,7.09338305 L157.352172,8.45337183 C161.398837,9.58249551 165.150051,11.6126446 168.336079,14.3978389 C174.548113,13.0597854 183.575982,11.5243142 186.84321,13.0159148 C191.443124,15.0997686 190.411368,19.9694059 190.088944,21.5487477 C190.081552,21.6948858 190.081552,21.8413156 190.088944,21.9874537 C190.91106,25.3396537 190.708543,28.8682845 189.508581,32.0996284 C188.537223,34.6528424 186.493415,36.6257833 183.941395,37.4737776 L182.845154,37.8466777 L181.770408,37.4079717 C176.289202,35.2144414 169.281856,34.249288 168.12113,36.2234653 C166.967672,37.9017551 166.90844,40.1209626 167.970666,41.8608382 C168.551029,42.6066385 169.023917,42.4530913 169.260361,42.3872854 C171.086136,41.8958644 172.826344,41.1189257 174.419143,40.0840786 L176.89106,38.0660308 L179.040552,40.5008494 C182.028347,44.1859803 186.112383,53.2671957 180.029319,61.2955165 L178.137765,63.4671115 Z M159.759604,16.3939515 C159.696697,21.8279137 157.967856,27.105355 154.815771,31.4854399 C150.83921,36.3550771 149.420545,39.09699 152.300865,44.6466216 C154.450358,48.9240057 165.498749,53.4207428 175.536879,56.0091085 C176.956724,53.135557 176.876072,49.7281376 175.32193,46.9278931 C173.93076,47.583978 172.493824,48.1338688 171.022945,48.5730408 C167.984786,49.5390685 164.679638,48.4499151 162.768894,45.8530633 C160.038954,41.9444391 159.911329,36.7348295 162.44647,32.6918815 C166.509011,25.7383905 178.073281,28.9848154 182.60871,30.4983513 C184.371294,28.9190094 184.027375,24.5538842 183.812426,23.6326014 C183.415868,22.4225389 183.415868,21.1136625 183.812426,19.9035999 C183.812426,19.5965057 183.984385,19.0919937 184.027375,18.7190936 C178.554486,18.8290257 173.110928,19.5647983 167.798706,20.9126239 L165.391275,21.4829418 L164.230549,19.2894115 C163.000196,17.9588399 161.463233,16.9634761 159.759604,16.3939515 L159.759604,16.3939515 Z" id="Shape" fill="#000000"></path>
                        <path d="M150.435026,112.747457 L148.486756,106.681036 C148.486756,106.483218 142.063889,86.8992274 124.722146,82.50327 C121.232388,81.6020987 117.913907,80.9866647 114.702473,80.3052913 C100.443707,77.6237572 88.111801,75.3158796 85.2857392,51.5117702 C84.2631497,39.8738822 87.8869211,28.3084668 95.3268222,19.4652407 C104.772136,7.95325668 118.432183,0.961206634 133.071874,0.145007916 C153.518002,-1.41555696 158.634887,10.1238312 158.763344,10.6073865 L152.982763,13.2010014 C152.982763,12.9592238 149.236091,5.50807595 133.714161,6.71696424 C120.816695,7.42931024 108.778029,13.5771508 100.443707,23.7073396 C94.1471257,31.169006 91.0582519,40.9282011 91.8798833,50.7644575 C94.0208391,69.7769733 101.920966,71.2276392 116.072684,73.8871934 C119.391166,74.5026275 122.816695,75.1400413 126.49914,76.0851721 C141.485831,79.9316349 149.428777,92.613972 152.811487,99.7134432 C157.52678,95.3170577 162.534447,91.2629785 167.798178,87.5806008 C179.958807,78.788686 173.771445,62.1280074 173.51453,61.4246542 L179.487797,58.9848978 C182.420907,66.6118839 184.561862,83.53632 171.480622,92.9656486 C157.949781,102.746654 154.352975,107.538247 154.352975,107.582207 L150.435026,112.747457 Z" id="Path" fill="#000000"></path>
                        <path d="M16.9832456,114.614137 C15.9588251,114.621917 14.9379164,114.488529 13.9473931,114.217134 C9.00562001,112.637591 5.82470852,107.657293 6.34714702,102.31756 C6.70805256,94.9133807 12.8434468,86.0988816 28.9992772,83.4104594 C32.2049676,83.0799156 40.5694842,81.2068346 43.2656609,76.1605338 L48.849082,79.3557898 C43.9662423,88.5008326 30.3792101,89.9111525 29.742318,89.9772612 C17.5352188,91.9825598 12.8646765,97.8442017 12.6311494,102.648104 C12.3062644,104.874991 13.5155019,107.037192 15.5396235,107.848658 C20.2526252,109.126761 32.1200486,103.19901 39.0409431,98.5493616 L42.5013904,104.102496 C40.8030114,105.292453 26.5790871,114.614137 16.9832456,114.614137 Z" id="Path" fill="#000000"></path>
                        <path d="M47.2548341,81.3872371 L45.0229522,80.6893741 C40.4989836,79.1378356 36.8004014,75.7098569 34.8110394,71.2246068 C32.7054904,66.0124423 33.54771,59.8407161 37.1903098,52.8402776 L38.6641941,50.0270173 L41.4224634,51.488168 C41.7593512,51.6626338 49.697271,55.9806613 51.7607091,64.2459765 C52.8869609,69.5329476 51.7170418,75.0655131 48.5602745,79.3808809 L47.2548341,81.3872371 Z M41.2540194,59.2082778 C39.8731425,62.1627946 39.6615803,65.5592392 40.6644657,68.6730451 C41.4911902,70.6087738 42.8926693,72.2207935 44.6650088,73.2745794 C45.8342809,70.9951591 46.1849447,68.3600272 45.6546169,65.8379765 C44.872426,63.2161798 43.3373694,60.9035477 41.2540194,59.2082778 L41.2540194,59.2082778 Z" id="Shape" fill="#000000"></path>
                        <path d="M109.91441,79.8938933 C108.825783,79.8928146 107.810512,79.3271137 107.212128,78.3881882 C86.4946388,45.7280122 112.359331,25.0469244 112.616691,24.8697845 C114.033864,23.8428994 115.984036,24.1581995 117.029314,25.583209 C118.074592,27.0082185 117.840015,29.031758 116.498539,30.1618401 C115.619226,30.8703999 95.2448828,47.4108416 112.595244,74.778962 C113.562303,76.3156801 113.151009,78.3697446 111.673037,79.3846003 C111.143925,79.7194764 110.535023,79.8958069 109.91441,79.8938933 L109.91441,79.8938933 Z" id="Path" fill="#000000"></path>
                        <path d="M144.777322,94.8273313 L144.45287,94.8273313 C143.596346,94.7446802 142.80811,94.3195943 142.263699,93.646738 C141.719288,92.9738817 141.463907,92.1091267 141.554428,91.2450495 C141.719099,83.9067568 138.408862,76.928991 132.642801,72.4599134 C125.212711,66.4952222 120.485408,57.7510258 119.534923,48.2139819 C119.499806,47.3448209 119.808392,46.497233 120.392663,45.8580391 C120.976934,45.2188453 121.788927,44.8405177 122.649667,44.8064455 C123.507674,44.7528482 124.350612,45.0523707 124.986331,45.6367367 C125.622049,46.2211028 125.996372,47.0405111 126.023972,47.9081773 C126.872631,55.5751564 130.719534,62.5819294 136.709272,67.3704521 C144.198869,73.216234 148.409441,82.3719661 148.000216,91.9221882 C147.81329,93.5770494 146.426672,94.8273313 144.777322,94.8273313 Z" id="Path" fill="#000000"></path>
                        <path d="M164.625071,97.440683 C164.111677,97.4442108 163.605064,97.3245939 163.148716,97.0920197 C161.532475,96.2846539 160.874186,94.3417863 161.67236,92.7347185 C167.643887,80.9264325 158.455228,71.4710891 158.058595,71.078932 C157.117312,70.2780541 156.709488,69.0231046 157.00279,67.8300244 C157.296092,66.6369441 158.241019,65.7070864 159.449089,65.4227386 C160.657159,65.1383908 161.924489,65.5475417 162.730048,66.4819793 C167.137079,70.8392804 174.078152,82.800072 167.577782,95.6541103 C167.016794,96.7559202 165.87267,97.4481553 164.625071,97.440683 Z" id="Path" fill="#000000"></path>
                        <rect id="Rectangle" stroke="#000000" stroke-width="5" fill="#CFAF4E" x="0" y="167.254506" width="199.467085" height="15.306774" rx="7.65338698"></rect>
                    </g>
                </g>
            </g>
        </g>
    </g>
</svg>