<svg xmlns="http://www.w3.org/2000/svg" viewBox="0 0 66 20"><path fill-rule="evenodd" d="M50.616 13.175c-.291-.662-.185-1.217.053-1.746.239-.53.689-.98 1.219-1.482.37-.344.662-.635.848-.9.397-.502.609-.952.82-1.402.107-.238.24-.476.398-.74 1.06-1.588 2.755-2.381 4.636-2.381 1.695 0 2.993.688 3.735 1.402a.725.725 0 00.504.212c.185 0 .37-.08.503-.212l1.987-2.196c.185-.238.291-.423.291-.582 0-.159-.08-.317-.265-.502C63.57.952 61.372 0 58.59 0c-2.331 0-4.424.794-6.04 1.958-1.616 1.19-2.834 2.83-3.47 4.523-.133.45.132.82.477.953.344.132.794.053.927-.397.556-1.508 1.616-2.91 2.993-3.915 1.378-1.006 3.1-1.614 5.113-1.614a8.72 8.72 0 013.258.608c.848.344 1.51.768 1.934 1.085L62.75 4.34c-1.298-.873-2.702-1.323-4.159-1.323-2.464 0-4.689 1.19-6.04 3.333-.132.238-.265.476-.344.688l-.345.661c-.264.45-.662.953-1.377 1.588-.821.74-1.59 1.799-1.59 3.042 0 .238.053.556.133.9.662 1.984 2.04 3.677 3.761 4.867C54.484 19.285 56.578 20 58.617 20c2.649 0 4.874-1.111 6.808-2.936.185-.186.265-.344.265-.53 0-.185-.08-.37-.265-.555l-2.066-2.143c-.319-.344-.742-.423-1.087-.026-1.033.978-2.013 1.666-3.682 1.666a5.392 5.392 0 01-3.205-1.032 6.167 6.167 0 01-1.987-2.46c-.186-.45-.636-.529-.98-.37-.345.158-.61.555-.398 1.005.557 1.243 1.43 2.355 2.57 3.122a7.18 7.18 0 004.026 1.243c1.563 0 2.835-.608 4.107-1.56l1.112 1.084c-1.59 1.296-3.232 1.984-5.218 1.984-1.775 0-3.47-.608-4.875-1.587-1.404-.953-2.57-2.275-3.126-3.73zM41.383 15L31.528 1.614h-2.384v4.603c0 .503-.344.74-.715.74-.37 0-.794-.237-.794-.74V.847c0-.503.264-.741.794-.741h3.47c.239 0 .45.106.61.29l8.715 11.88-.026-11.43c0-.502.265-.74.794-.74h2.941c.53 0 .795.238.795.74v18.36c0 .503-.265.741-.795.741h-3.285c-.238 0-.424-.106-.583-.317L31.953 7.328c-.08.317-.133.503-.319.74-.212.239-.53.556-1.085 1.085-.822.82-1.431 1.217-1.405 2.143v7.143h1.484v-7.17c0-.502.397-.74.768-.74s.742.238.742.74v7.937c0 .503-.265.741-.795.741h-2.914c-.53 0-.794-.238-.794-.74v-8.149c0-.873.556-1.746 1.271-2.407.397-.397.795-.767 1.166-1.111.37-.344.556-.662.556-.953V5.37c0-.529.238-.793.53-.873.291-.079.662.053.874.37l10.04 13.572h2.146V1.614h-1.51V14.55c0 .503-.212.715-.503.767a.804.804 0 01-.822-.317zm-18.247-2.778v6.984c0 .503-.265.741-.794.741h-2.94c-.53 0-.796-.238-.796-.74v-7.09c0-1.456.875-2.355 1.802-3.281.662-.661 1.218-1.217 1.218-2.037V1.614h-1.51v5.132c0 .503-.37.714-.741.714s-.769-.211-.769-.714v-5.9c0-.502.265-.74.795-.74h2.94c.53 0 .795.238.795.74v6.191c0 1.138-.82 1.931-1.563 2.751-.715.768-1.457 1.429-1.457 2.514v6.137h1.51v-6.217c0-.45.398-.714.769-.714.37 0 .741.212.741.714zM4.45 15.635l2.914-2.857c.318-.318.742-.185.98.106.24.29.319.714-.026 1.031l-1.483 1.508h7.762c.53 0 .794.265.794.767v3.016c0 .503-.265.741-.794.741H.795c-.53 0-.795-.238-.795-.74V16.11c0-.238.08-.423.212-.555l5.033-4.895c.874-.873 1.802-1.296 2.94-1.72l.716-.317a4.28 4.28 0 00.954-.555c.291-.238.503-.476 1.139-1.19.318-.345.662-.741 1.06-1.138l1.827-2.01V1.613H1.907v1.508h8.742c.318 0 .583.211.69.45a.746.746 0 01-.133.793L8.954 6.852c-.318.317-.742.212-1.007-.053-.265-.265-.397-.661-.08-.979L8.98 4.63H1.245c-.53 0-.795-.238-.795-.741V.873c0-.503.265-.767.795-.767h13.352c.53 0 .794.264.794.767v3.122c0 .185-.08.37-.238.529-.398.423-1.14 1.243-1.855 2.037-.344.397-.688.767-.98 1.085-.291.343-.503.555-.583.66-.82.98-1.721 1.482-2.914 1.985-.953.397-1.8.74-2.463 1.402l-4.848 4.71v2.036h12.371v-1.508h-9.06a.66.66 0 01-.635-.476c-.106-.265-.027-.582.264-.82z"/></svg>