<?xml version="1.0" encoding="UTF-8"?>
<svg width="40px" height="40px" viewBox="0 0 40 40" version="1.1" xmlns="http://www.w3.org/2000/svg" xmlns:xlink="http://www.w3.org/1999/xlink">
    <!-- Generator: Sketch 63.1 (92452) - https://sketch.com -->
    <title>3box-logo-black</title>
    <desc>Created with Sketch.</desc>
    <g id="Page-1" stroke="none" stroke-width="1" fill="none" fill-rule="evenodd">
        <g id="3box-logo-black" fill="#000000" fill-rule="nonzero">
            <g id="_x3C_3-path_x3E_">
                <path d="M30.323,35.27 C31.273,35.27 32.184,35.102 33.028,34.796 C31.924,37.831 29.012,40 25.593,40 L7.91,40 C3.542,40 0,36.458 0,32.09 L0,14.406 C0,10.988 2.168,8.076 5.205,6.971 C4.898,7.815 4.73,8.726 4.73,9.677 L4.73,27.36 C4.73,31.729 8.271,35.27 12.64,35.27 L30.323,35.27 L30.323,35.27 Z M20.488,25.393 C19.272,25.393 18.355,25.042 17.737,24.34 C17.118,23.637 16.81,22.71 16.81,21.557 L12.596,22.186 C12.554,24.513 13.241,26.257 14.656,27.42 C16.071,28.584 17.984,29.165 20.394,29.165 C21.778,29.165 22.993,28.966 24.041,28.568 C25.089,28.17 25.912,27.582 26.509,26.807 C27.107,26.032 27.405,25.099 27.405,24.008 C27.405,22.939 27.048,21.994 26.336,21.17 C25.623,20.348 24.648,19.936 23.412,19.936 C24.712,19.936 25.655,19.509 26.242,18.654 C26.829,17.8 27.123,16.859 27.123,15.832 C27.123,14.323 26.515,13.111 25.299,12.2 C24.083,11.289 22.323,10.832 20.017,10.832 C18.885,10.832 17.911,10.995 17.093,11.319 C16.275,11.644 15.6,12.064 15.064,12.578 C14.53,13.091 14.106,13.631 13.791,14.197 C13.477,14.763 13.256,15.287 13.13,15.769 C13.004,16.252 12.941,16.629 12.941,16.901 L16.84,17.593 C16.84,16.796 17.133,16.074 17.72,15.424 C18.306,14.774 19.114,14.449 20.141,14.449 C21.084,14.449 21.834,14.685 22.389,15.156 C22.945,15.628 23.223,16.231 23.223,16.964 C23.223,17.467 23.07,17.84 22.766,18.08 C22.462,18.321 22.085,18.484 21.634,18.567 C21.184,18.651 20.739,18.692 20.298,18.692 L18.538,18.692 L18.538,20.925 L20.205,20.925 C21.106,20.925 21.845,21.087 22.422,21.412 C22.998,21.737 23.287,22.256 23.287,22.969 C23.287,23.618 23.04,24.184 22.548,24.666 C22.055,25.152 21.369,25.393 20.488,25.393 Z M32.09,0 L14.407,0 C10.988,0 8.076,2.168 6.972,5.204 C7.815,4.897 8.727,4.73 9.677,4.73 L27.36,4.73 C31.729,4.73 35.27,8.272 35.27,12.64 L35.27,30.323 C35.27,31.273 35.102,32.184 34.795,33.029 C37.831,31.923 40,29.012 40,25.593 L40,7.91 C40,3.541 36.459,0 32.09,0 Z" id="Shape"></path>
            </g>
        </g>
    </g>
</svg>