<?xml version="1.0" encoding="utf-8"?>
<!-- Generator: Adobe Illustrator 24.0.1, SVG Export Plug-In . SVG Version: 6.00 Build 0)  -->
<svg version="1.1" id="图层_1" xmlns="http://www.w3.org/2000/svg" xmlns:xlink="http://www.w3.org/1999/xlink" x="0px" y="0px"
	 viewBox="0 0 512 512" style="enable-background:new 0 0 512 512;" xml:space="preserve">
<style type="text/css">
	.st0{fill:#FF8C00;}
	.st1{fill:#191919;}
</style>
<g>
	<path class="st0" d="M79.24,120.44L282.59,3.03c7-4.04,15.63-4.04,22.64,0l128.09,73.95c12.87,7.43,15.22,25.04,4.73,35.58
		l-43.42,43.64c-7.24,7.28-18.47,8.77-27.36,3.64l-61.8-35.68c-7.15-4.13-15.96-4.13-23.11,0L67.92,249.2l0-109.16
		C67.92,131.95,72.24,124.48,79.24,120.44z"/>
	<path class="st1" d="M433.22,434.74l-128.56,74.22c-7,4.04-15.63,4.04-22.63,0L78.67,391.56c-7-4.04-11.32-11.52-11.32-19.6v-99.01
		l104.79-60.74v99.25c0,8.09,4.31,15.56,11.32,19.6l98.57,56.91c7,4.04,15.63,4.04,22.63,0l62.37-36.01
		c8.87-5.12,20.08-3.65,27.32,3.6l43.56,43.56C448.44,409.65,446.11,427.3,433.22,434.74z"/>
</g>
</svg>
