<svg xmlns="http://www.w3.org/2000/svg" xmlns:xlink="http://www.w3.org/1999/xlink" viewBox="0 0 65 55.01"><defs><linearGradient id="a" x1="-202.44" y1="413.89" x2="-202.17" y2="413.24" gradientTransform="matrix(40, 0, 0, -37.18, 8124.42, 15406.55)" gradientUnits="userSpaceOnUse"><stop offset="0" stop-color="#ed55eb"/><stop offset="0.37" stop-color="#17e0d8"/><stop offset="0.6" stop-color="#00ffc2"/><stop offset="1" stop-color="#ffec06"/></linearGradient></defs><path d="M32.5.5A27.2,27.2,0,0,1,54.22,11.25h.5c5.43,1,9.78,6.55,9.78,12.91a12,12,0,0,1-5.76,10.47,27.26,27.26,0,0,1-52.48,0A12,12,0,0,1,.5,24.16c0-6.36,4.36-11.89,9.79-12.92h.49A27.22,27.22,0,0,1,32.5.5Z" style="fill:#171717;stroke:#fff;fill-rule:evenodd"/><path d="M22.5,12.55a22.22,22.22,0,0,1,20,0,18.21,18.21,0,0,1,10,16.26V33.7a12.85,12.85,0,0,1-10,12.53,45.3,45.3,0,0,1-20,0,12.85,12.85,0,0,1-10-12.53V28.81A18.23,18.23,0,0,1,22.5,12.55Z" style="fill-rule:evenodd;fill:url(#a)"/></svg>