<svg xmlns="http://www.w3.org/2000/svg" width="56.7" height="58.5" viewBox="0 0 56.7 58.5"><style type="text/css">.st0{fill:#2C398F;} .st1{fill:#04FFCC;} .st2{fill:#7DF8FB;}</style><path class="st0" d="M2.3 43.3c-5.8-14.2 0-28.5 11.6-38.8 14.7-13 35 5.2 40.1 13.8 5.5 9.3 2.8 29-10.6 36.6s-35.3 2.7-41.1-11.6z"/><path class="st1" d="M31.4 11.1c0 .9-1.4.5-3 1.1-1.8.6-3.1.1-3.1-.8s1.2-3 2.9-3.1 3.2 1.9 3.2 2.8zM56.1 24c-1.1-.8-2.2-1.3-3-1.3-2.2-.1-3.8 2.8-2.7 7.1 1 3.9-.3 7.3 1.9 7.4.9.1 2.4-.5 3.8-1.5.8-4.1.8-8.1 0-11.7z"/><path class="st2" d="M35.8 2.5c-.8.7-1.4 1.7-1.4 2.9v14.3c-2.1-1.2-4.6-2-7.3-2-8 0-14.5 6.5-14.5 14.5s6.5 14.5 14.5 14.5c2.8 0 5.4-.8 7.6-2.2.6 1.3 1.9 2.2 3.4 2.2 2 0 3.7-1.7 3.7-3.7v-37c-1.8-1.3-3.8-2.6-6-3.5zm-2.6 31.8c-.8 4.6-5.1 5.4-8.6 3.3-7.7-4.4-1.2-15.8 6.5-11.4 2.3 1.4 2.6 5.5 2.1 8.1z"/><path class="st1" d="M24.8 58.2c-.8-2.8-3.4-5.9-8-8.3-6.9-3.6-10.3-9.8-13.2-6.8-.4.5-.6.9-.8 1.3 3.7 7.9 12.6 12.7 22 13.8z"/></svg>