<svg width="48" height="45" viewBox="0 0 48 45" fill="none" xmlns="http://www.w3.org/2000/svg">
<path fill-rule="evenodd" clip-rule="evenodd" d="M0 6.24303C0 5.86426 0.214002 5.518 0.552786 5.34861L9.80278 0.723607C10.4677 0.391156 11.25 0.874652 11.25 1.61803V43.2376C11.25 43.9201 10.5813 44.4021 9.93377 44.1863L0.683771 41.1029C0.275429 40.9668 0 40.5847 0 40.1542V6.24303ZM17.25 9.01828C17.25 8.56523 17.5546 8.16878 17.9923 8.05204L27.2423 5.58538C27.8772 5.41608 28.5 5.89458 28.5 6.55161V37.656C28.5 38.3258 27.8543 38.8063 27.2126 38.6138L17.9626 35.8388C17.5397 35.7119 17.25 35.3226 17.25 34.881V9.01828ZM34.5 13C34.5 12.4477 34.9477 12 35.5 12H45.9475C46.7811 12 47.2488 12.9599 46.7351 13.6163L36.2875 26.966C35.7016 27.7146 34.5 27.3003 34.5 26.3497V13Z" fill="#4A2DE2"/>
</svg>
