<svg width="178" height="179" viewBox="0 0 178 179" fill="none" xmlns="http://www.w3.org/2000/svg">
<g clip-path="url(#clip0_4311_7616)">
<path d="M115.359 10.0689C117.433 10.0689 119.507 10.217 121.729 10.3652L123.359 10.5133L124.988 10.8096C125.877 10.9577 127.21 11.254 128.099 11.4022C128.988 11.5503 129.877 11.8466 130.766 12.1429C132.395 12.5873 134.025 13.1799 135.654 13.9206C136.543 14.365 137.728 14.8094 138.617 15.2539C138.617 15.2539 138.765 15.402 138.913 15.402C104.1 -7.4119 56.9908 -3.5602 26.4735 27.1052C25.7328 27.9941 24.5477 29.1792 23.807 29.9199C23.0663 30.6607 21.4367 32.7346 20.696 33.4754C19.9553 34.3642 18.9183 35.6975 18.3257 36.5863C17.4368 37.7715 15.9554 39.8455 15.2147 41.0306C14.474 42.0676 13.5852 43.549 12.9926 44.7342C12.6963 45.3267 11.2149 47.8451 10.9186 48.4377C10.4742 49.4747 9.28903 51.6968 8.8446 52.5857C8.40017 53.6227 7.8076 55.1041 7.36318 56.1411C7.21504 56.4374 6.17804 59.4002 6.0299 59.8447C5.58547 61.178 4.9929 62.9557 4.54848 64.2889C4.10405 65.7704 3.65962 67.3999 3.36334 68.8813C3.2152 69.4739 2.62263 72.1405 2.47448 72.733C2.32634 73.77 2.03006 75.5477 1.88192 76.5847C0.696777 83.5474 0.400493 90.6583 0.993062 97.6209C1.1412 99.1024 1.43749 100.88 1.58563 102.213C1.73377 103.102 2.1782 105.621 2.32634 106.509C2.47448 107.25 2.77077 108.435 2.91891 109.176L3.2152 110.657C3.51148 111.843 3.95591 113.62 4.40033 114.805C4.69662 115.546 5.43733 118.065 5.73361 118.953C6.17804 119.99 6.77061 121.62 7.06689 122.657C7.51132 123.694 8.54832 125.916 8.8446 126.953L10.1779 129.768L10.4742 130.508L10.6223 130.805L10.9186 131.101L11.6593 132.434C12.1037 133.175 12.6963 134.508 13.1407 135.101C13.7333 135.99 15.0666 138.212 15.6591 139.101C16.1036 139.693 16.9924 141.027 17.4368 141.619C18.1776 142.508 19.5108 144.434 20.2516 145.323C21.4367 146.656 23.0663 148.73 24.3995 150.063C25.1402 150.804 25.881 151.545 26.6217 152.285L27.8068 153.322L28.3994 153.915C28.9919 154.508 29.8808 155.248 30.4734 155.693C31.2141 156.285 31.9548 156.878 32.5474 157.322C32.8436 157.47 34.1769 158.507 34.4732 158.656C35.5102 159.248 36.6953 160.137 37.7323 160.73C38.7693 161.322 40.1026 161.915 41.1396 162.507C41.8803 162.804 42.621 163.1 43.2136 163.396C45.1394 164.137 47.0653 164.878 49.1393 165.47C51.0651 166.063 53.2873 166.507 55.2131 166.803C56.9908 167.1 58.9167 167.248 60.6944 167.396C61.4351 167.396 62.3239 167.396 63.0647 167.396C63.3609 167.396 63.6572 167.396 63.9535 167.396C80.5454 166.803 96.1004 158.211 105.581 143.989C105.878 143.545 106.47 142.36 106.767 142.064C107.211 141.323 107.804 140.138 108.248 139.249C108.544 138.656 108.989 137.767 109.285 137.175C109.581 136.286 110.174 135.101 110.47 134.36L111.063 132.879L111.507 131.397C111.655 130.953 111.803 130.36 111.952 129.916C112.692 127.398 113.137 124.879 113.433 122.213C113.729 119.99 113.877 117.768 113.877 115.546C111.803 115.546 109.581 115.25 107.507 114.954C98.1744 113.768 89.434 110.065 82.0269 104.139C66.6201 91.9915 59.3611 72.1405 63.0647 52.882C67.9533 27.4015 90.471 9.92074 115.359 10.0689ZM38.6212 145.767C37.5842 145.026 36.5472 143.989 35.6583 143.101C27.5105 135.101 21.1404 125.324 16.8443 114.805C16.548 114.065 15.9554 112.435 15.6591 111.694C15.3629 110.361 14.6221 108.583 14.3259 107.398C14.0296 106.361 13.7333 105.176 13.437 104.139L12.9926 101.917C10.4742 90.2138 10.4742 77.918 13.1407 66.2148C22.6218 22.8091 66.0275 -5.63419 109.433 3.55063C103.656 2.66177 97.7299 2.21735 91.8043 2.51363C42.1766 4.88391 5.73361 50.3636 14.7703 99.2505C17.7331 115.25 25.5847 130.212 36.9916 141.767C37.8805 142.656 38.7693 143.545 39.8063 144.286C58.0278 160.137 86.4711 159.544 103.359 141.915C86.7674 160.73 57.2871 161.767 38.6212 145.767ZM44.695 131.101C43.9543 130.36 42.7692 129.027 42.0285 128.138C41.2877 127.249 40.1026 125.916 39.51 125.027C4.25219 79.1032 31.6585 12.291 88.9895 4.58762C96.8411 3.69877 104.989 3.99505 112.84 5.47647C102.322 3.84691 91.6561 4.43948 81.4343 7.25418C66.1756 11.254 52.3984 20.4388 42.621 32.7346C21.4367 58.5114 20.696 97.1765 41.1396 123.694C41.7322 124.583 42.9173 125.916 43.658 126.805C44.3987 127.694 45.4357 129.027 46.3246 129.768C61.4351 147.1 89.1377 149.174 105.878 132.583C89.434 150.508 60.6944 148.582 44.695 131.101ZM60.9907 125.62C59.8055 124.731 58.6204 123.842 57.5834 122.805C50.0281 115.694 44.2506 106.806 40.6952 97.0284C25.881 56.5855 52.2503 12.291 95.2115 6.80975C102.174 5.9209 109.285 6.21719 116.248 7.55047C111.655 6.9579 106.915 6.66161 102.322 6.9579C50.1763 10.217 21.2885 68.2888 50.6207 111.546L51.6577 113.028L52.6947 114.361C53.7317 115.694 54.9168 117.176 55.9538 118.361C68.5459 133.323 91.2117 137.619 107.063 125.324C94.1745 136.582 74.4716 135.693 60.9907 125.62ZM70.1755 111.546C70.4718 111.843 70.9162 112.287 71.2125 112.583C72.1013 113.324 73.1383 114.213 74.0272 114.805C74.4716 115.102 75.5086 115.694 75.8049 115.991C76.6937 116.435 77.4345 117.028 78.3233 117.472C78.7677 117.62 79.8047 118.361 80.2492 118.509C88.6933 122.361 98.3225 122.953 107.063 119.842C103.804 121.176 100.396 122.064 96.8411 122.361C96.2485 122.361 95.0634 122.509 94.619 122.509C93.8782 122.509 93.1375 122.509 92.3968 122.509C86.323 122.213 80.3973 120.435 75.0642 117.324C74.6198 117.028 73.5828 116.435 73.1383 116.139C72.6939 115.842 71.6569 115.102 71.2125 114.805C70.4718 114.361 69.7311 113.62 69.1385 113.176C44.2506 91.2508 42.4729 52.1413 64.9905 27.8459C72.842 19.2537 83.212 13.0317 94.619 10.217C102.47 8.29118 110.618 7.99489 118.47 9.32817C106.618 7.99489 94.4708 10.217 83.8046 15.6983C47.6579 34.6605 40.547 83.2511 70.1755 111.546Z" fill="black"/>
<path d="M69.5829 64.4371C67.9534 64.1408 66.1757 63.9926 64.3979 63.8445V63.9926C66.1757 63.9926 67.9534 64.1408 69.5829 64.4371C69.7311 64.4371 69.7311 64.4371 69.5829 64.4371Z" fill="black"/>
<path d="M151.802 152.137C152.542 151.248 153.728 150.063 154.468 149.323C155.209 148.582 156.839 146.508 157.579 145.767C158.32 144.878 159.357 143.545 159.95 142.656C160.838 141.471 162.32 139.397 163.061 138.212C163.801 137.175 164.69 135.694 165.283 134.508C165.579 133.916 167.06 131.397 167.357 130.805C167.801 129.768 168.986 127.546 169.431 126.657C169.875 125.62 170.468 124.138 170.912 123.101C171.06 122.805 172.097 119.842 172.245 119.398C172.69 118.065 173.282 116.287 173.727 114.954C174.171 113.472 174.616 111.843 174.912 110.361C175.06 109.769 175.653 107.102 175.801 106.51C175.949 105.473 176.245 103.695 176.393 102.658C177.43 95.6951 177.578 88.5843 176.986 81.6216C176.838 80.1402 176.542 78.3625 176.393 77.0292C176.245 76.1404 175.801 73.6219 175.653 72.7331C175.505 71.9924 175.208 70.8072 175.06 70.0665L174.764 68.5851C174.468 67.4 174.023 65.6223 173.579 64.4371C173.282 63.6964 172.542 61.178 172.245 60.2891C171.801 59.2521 171.208 57.6226 170.912 56.5856C170.468 55.5486 169.431 53.3265 169.134 52.2895L167.801 49.4748L167.505 48.734L167.357 48.4378L167.209 48.1415L166.468 46.8082C166.023 46.0675 165.431 44.7342 164.986 44.1416C164.394 43.2528 163.061 41.0306 162.468 40.1418C162.024 39.5492 161.135 38.2159 160.69 37.6234C159.95 36.7345 158.616 34.8087 157.876 33.9198C156.69 32.5865 155.061 30.5126 153.728 29.1793C152.987 28.4386 152.246 27.6978 151.505 26.9571L150.32 25.9201L149.728 25.3276C149.135 24.735 148.246 23.9943 147.654 23.5499C146.913 22.9573 146.172 22.3647 145.58 21.9203C145.284 21.7722 143.95 20.7352 143.654 20.587C142.617 19.9944 141.432 19.1056 140.395 18.513C139.358 17.9205 138.025 17.3279 136.988 16.7353C136.247 16.439 135.506 16.1428 134.914 15.8465C133.284 15.1058 131.506 14.5132 129.729 14.0688C128.988 13.9206 128.247 13.6243 127.506 13.4762C127.062 13.3281 125.729 13.0318 125.284 13.0318C124.544 12.5873 123.655 12.4392 123.062 12.2911C121.284 11.9948 119.359 11.8466 117.581 11.6985C116.84 11.6985 115.951 11.6985 115.211 11.6985C114.914 11.6985 114.618 11.6985 114.322 11.6985C97.7298 12.2911 82.1749 20.8833 72.842 35.105C72.5457 35.5494 71.9531 36.7345 71.6568 37.0308C71.2124 37.7715 70.6198 38.9567 70.1754 39.8455C69.8791 40.4381 69.4347 41.3269 69.1384 41.9195C68.8421 42.8084 68.2495 43.9935 67.9533 44.7342L67.3607 46.2156L66.9163 47.697C66.7681 48.1415 66.62 48.734 66.4718 49.1785C65.7311 51.6969 65.2867 54.2153 64.9904 56.8819C64.546 59.2521 64.3978 61.4743 64.3978 63.6964C75.9529 63.6964 87.0636 67.6962 96.2484 74.8071C111.655 86.9547 118.914 106.806 115.211 126.064C110.322 151.841 87.8043 169.322 62.9164 169.174C60.8424 169.174 58.7684 169.026 56.5463 168.877L54.9167 168.729L53.2872 168.433C52.3983 168.285 51.0651 167.989 50.1762 167.84C49.2873 167.692 48.3985 167.396 47.5096 167.1C45.8801 166.655 44.2505 166.063 42.6209 165.322C41.7321 164.878 40.547 164.433 39.6581 163.989C39.6581 163.989 39.51 163.841 39.3618 163.841C74.1752 186.654 121.284 182.803 151.802 152.137ZM94.3226 163.544C130.617 144.582 137.876 95.9914 108.248 67.6962C107.952 67.4 107.507 66.9555 107.211 66.6592C106.322 65.9185 105.285 65.0297 104.396 64.4371C103.952 64.1408 102.915 63.5483 102.619 63.252C101.73 62.8076 100.989 62.215 100.1 61.7706C99.6557 61.6224 98.6187 61.0298 98.1743 60.7336C89.7302 56.8819 80.1009 56.2893 71.3605 59.4003C74.6197 58.067 78.0269 57.1782 81.5823 56.8819C82.1749 56.8819 83.3601 56.7337 83.8045 56.7337C84.5452 56.7337 85.2859 56.7337 86.0266 56.7337C92.1004 57.03 98.0261 58.8077 103.359 61.9187C103.804 62.215 104.841 62.8075 105.285 63.1038C105.73 63.4001 106.767 64.1408 107.211 64.4371C107.952 64.8815 108.692 65.6222 109.285 66.0667C134.173 87.9917 135.951 127.101 113.433 151.397C105.581 159.989 95.2114 166.211 83.8045 169.026C75.9529 170.951 67.8051 171.248 59.9536 169.914C71.5087 171.248 83.6563 169.026 94.3226 163.544ZM76.1011 172.285C128.099 169.026 156.987 110.954 127.655 67.6962L126.618 66.2148L125.581 64.8815C124.544 63.5483 123.358 62.0668 122.321 60.8817C109.729 45.9193 87.0636 41.6232 71.2124 53.919C84.1008 42.6602 103.804 43.5491 117.285 53.6227C118.47 54.5116 119.655 55.4004 120.692 56.4374C128.247 63.5483 134.025 72.4368 137.58 82.2142C152.394 122.657 125.877 166.803 83.0638 172.433C76.1011 173.322 68.9903 173.025 62.0276 171.692C66.7681 172.433 71.5087 172.581 76.1011 172.285ZM96.9891 171.988C112.248 167.989 126.025 158.804 135.802 146.508C156.839 120.731 157.579 82.066 137.136 55.5486C136.543 54.6597 135.358 53.3265 134.617 52.4376C133.877 51.5487 132.84 50.2155 131.951 49.4748C116.84 32.1421 89.1376 30.0681 72.3975 46.66C88.6932 28.7348 117.581 30.6607 133.432 48.1415C134.173 48.8822 135.358 50.2155 136.099 51.1043C136.839 51.9932 138.025 53.3264 138.617 54.2153C173.875 99.9912 146.469 166.952 89.1376 174.507C81.1379 175.544 73.1382 175.247 65.2867 173.618C75.9529 175.396 86.7673 174.803 96.9891 171.988ZM68.8421 175.692C74.6197 176.581 80.5454 177.025 86.471 176.729C136.247 174.507 172.542 129.027 163.505 79.9921C160.542 63.9927 152.691 49.0303 141.284 37.4752C140.395 36.5864 139.506 35.6975 138.469 34.9568C120.247 19.1056 91.8042 19.6982 74.9159 37.3271C91.5079 18.513 120.988 17.476 139.654 33.4754C140.691 34.2161 141.728 35.2531 142.617 36.142C150.765 44.1416 157.135 53.919 161.431 64.4371C161.727 65.1778 162.32 66.8074 162.616 67.5481C163.061 68.7332 163.653 70.6591 163.949 71.8442C164.246 72.8812 164.542 74.0664 164.838 75.1034L165.283 77.3255C167.801 89.0287 167.801 101.325 165.135 113.028C155.653 156.433 112.248 184.877 68.8421 175.692Z" fill="black"/>
</g>
<defs>
<clipPath id="clip0_4311_7616">
<rect width="176.845" height="177.771" fill="white" transform="translate(0.696777 0.774658)"/>
</clipPath>
</defs>
</svg>
