<svg xmlns="http://www.w3.org/2000/svg" viewBox="0 0 625.17 169.95"><g data-name="Layer 2"><g data-name="Layer 1"><path d="M625.17 72.61h-25.76V46.84h25.76zm0 64.12h-25.76v25.77h25.76zm-484 30.84l-38-54.29c22.43-8.74 35.18-27.15 35.18-52.17 0-36.59-26.91-58.78-70.35-58.78H0v165.24h30.68v-48.16H68a58.87 58.87 0 006.37-.23l33.76 48.39zm-33.8-106.46c0 20.77-13.92 33.05-40.84 33.05H30.65V28.3h35.92c26.88 0 40.8 12.04 40.8 32.81zM223.75 170c45.32 0 66.8-22.66 66.8-49.1 0-60.67-98-37.77-98-72.94 0-12.51 10.39-22.43 35.88-22.43 14.4 0 30.69 4.25 45.56 13l9.68-23.84C269.27 5.19 248.49 0 228.67 0c-45.29 0-66.57 22.66-66.57 49.34 0 61.37 98.2 38 98.2 73.65 0 12.27-10.86 21.48-36.59 21.48-20.3 0-41.31-7.56-54.5-18.18l-10.64 23.81C172.29 162 198 170 223.75 170zm148.51 0c45.29 0 66.77-22.66 66.77-49.1 0-60.67-98-37.77-97.93-72.94 0-12.51 10.39-22.43 35.88-22.43 14.37 0 30.66 4.25 45.53 13l9.68-23.84C417.79 5.19 397 0 377.19 0c-45.33 0-66.58 22.66-66.55 49.34 0 61.37 98.21 38 98.21 73.65 0 12.27-10.86 21.48-36.59 21.48-20.34 0-41.35-7.56-54.57-18.18l-10.62 23.81c13.69 11.9 39.42 19.9 65.19 19.9zm154.62-99.4L567 23V2.33H454.38v25.73h75.06l-37.53 44.62v21H507c25 0 35.88 9.72 35.88 24.55 0 15.35-13 25-34.94 25-18.65 0-36.59-6.38-48.39-16.29l-13.22 23.84c15.31 12 38.68 19.12 62 19.12 44.41 0 65.42-24.08 65.42-51.93 0-24.76-15.82-43.41-46.94-47.39z" data-name="Layer 4"/></g></g></svg>