<!-- Generator: Adobe Illustrator 22.1.0, SVG Export Plug-In  -->
<svg version="1.1"
	 xmlns="http://www.w3.org/2000/svg" xmlns:xlink="http://www.w3.org/1999/xlink" xmlns:a="http://ns.adobe.com/AdobeSVGViewerExtensions/3.0/"
	 x="0px" y="0px" width="390.9px" height="114.8px" viewBox="0 0 390.9 114.8" style="enable-background:new 0 0 390.9 114.8;"
	 xml:space="preserve">
<style type="text/css">
	.st0{fill:#D8D8D8;}
	.st1{fill:#AAAAAA;}
	.st2{fill:#FFFFFF;}
	.st3{fill:url(#SVGID_1_);}
	.st4{fill:url(#SVGID_2_);}
	.st5{fill:url(#SVGID_3_);}
	.st6{fill:url(#SVGID_4_);}
	.st7{fill:url(#SVGID_5_);}
	.st8{fill:url(#SVGID_6_);}
	.st9{fill:url(#SVGID_7_);}
	.st10{fill:url(#SVGID_8_);}
	.st11{fill:url(#SVGID_9_);}
	.st12{fill:url(#SVGID_10_);}
	.st13{fill:url(#SVGID_11_);}
	.st14{fill:url(#SVGID_12_);}
	.st15{fill:url(#SVGID_13_);}
	.st16{fill:url(#SVGID_14_);}
	.st17{fill:url(#SVGID_15_);}
	.st18{fill:url(#SVGID_16_);}
	.st19{fill:#F89200;}
	.st20{fill:#00BC9B;}
	.st21{fill:#F8BF00;}
	.st22{fill:#5CD551;}
	.st23{fill:#FF4C9F;}
	.st24{fill:#00BEF2;}
	.st25{fill:#CE0003;}
	.st26{fill:#3273E2;}
	.st27{fill:#A680D0;}
	.st28{fill:url(#SVGID_17_);}
	.st29{fill:url(#SVGID_18_);}
	.st30{fill:url(#SVGID_19_);}
	.st31{fill:url(#SVGID_20_);}
	.st32{fill:url(#SVGID_21_);}
	.st33{fill:url(#SVGID_22_);}
	.st34{fill:url(#SVGID_23_);}
	.st35{fill:url(#SVGID_24_);}
	.st36{fill:url(#SVGID_25_);}
	.st37{fill:url(#SVGID_26_);}
	.st38{fill:url(#SVGID_27_);}
	.st39{fill:url(#SVGID_28_);}
	.st40{fill:url(#SVGID_29_);}
	.st41{fill:url(#SVGID_30_);}
	.st42{fill:url(#SVGID_31_);}
	.st43{fill:url(#SVGID_32_);}
</style>
<defs>
</defs>
<path d="M170.1,65.4v9.2c-4.1,2.3-8.1,3.5-11.9,3.5c-5.3,0-9.9-2-13.8-5.9c-4-4-5.9-8.6-5.9-13.8c0-5.9,2-10.8,5.9-14.7
	s8.9-5.8,14.8-5.8c3.5,0,7.2,0.9,10.9,2.7v9c-4-2.5-7.8-3.8-11.5-3.8c-3.3,0-6.2,1.2-8.7,3.5s-3.7,5.1-3.7,8.2
	c0,3.5,1.2,6.5,3.5,8.9s5.2,3.6,8.6,3.6C161.8,70,165.7,68.5,170.1,65.4L170.1,65.4z M172.9,57.8c0-5.2,2-9.9,6.2-13.9
	c4.1-4.1,8.8-6.1,14.2-6.1c5.5,0,10.3,2,14.4,6s6.1,8.7,6.1,14c0,5.4-2,10.1-6,14.2s-8.6,6.1-13.9,6.1c-5.6,0-10.5-2-14.7-6.1
	C174.9,68,172.9,63.3,172.9,57.8z M205.9,57.8c0-3.3-1.2-6.1-3.7-8.5s-5.4-3.6-8.8-3.6c-3.5,0-6.5,1.2-9,3.7
	c-2.5,2.4-3.8,5.3-3.8,8.7c0,3.2,1.3,6,3.8,8.5c2.5,2.4,5.5,3.6,8.9,3.6c3.3,0,6.2-1.2,8.7-3.7C204.7,64,205.9,61.1,205.9,57.8
	L205.9,57.8z M217.9,26.4c0-1.7,0.6-3.1,1.8-4.3s2.7-1.8,4.4-1.8s3.1,0.6,4.3,1.8c1.2,1.2,1.8,2.6,1.8,4.3c0,1.7-0.6,3.1-1.8,4.3
	c-1.2,1.2-2.6,1.8-4.3,1.8s-3.2-0.6-4.4-1.8C218.5,29.6,217.9,28.1,217.9,26.4z M220.1,38.9h8V77h-8V38.9z M235.7,77V38.9h8v6.3
	c2.3-2.6,4.4-4.4,6.2-5.6c1.9-1.2,3.9-1.8,6.2-1.8c3.4,0,6.3,1.1,8.8,3.4c2.4,2.3,3.6,5,3.6,8.2V77h-8V51.8c0-2.1-0.7-3.8-2-5.2
	s-3-2-5.1-2c-2.7,0-4.9,1.1-6.9,3.4c-1.9,2.3-2.9,5-2.9,8.2V77H235.7L235.7,77z M273.5,57.8c0-5.2,2-9.9,6.2-13.9
	c4.1-4.1,8.8-6.1,14.2-6.1c5.5,0,10.3,2,14.4,6s6.1,8.7,6.1,14c0,5.4-2,10.1-6,14.2s-8.6,6.1-13.9,6.1c-5.6,0-10.5-2-14.7-6.1
	C275.6,68,273.5,63.3,273.5,57.8L273.5,57.8z M306.6,57.8c0-3.3-1.2-6.1-3.7-8.5s-5.4-3.6-8.8-3.6c-3.5,0-6.5,1.2-9,3.7
	c-2.5,2.4-3.8,5.3-3.8,8.7c0,3.2,1.3,6,3.8,8.5c2.5,2.4,5.5,3.6,8.9,3.6c3.3,0,6.2-1.2,8.7-3.7C305.3,64,306.6,61.1,306.6,57.8z
	 M319.3,77V38.9h8v5.8c1.9-2.4,3.7-4.1,5.3-5.2c1.7-1.1,3.7-1.7,5.9-1.7c2.9,0,5.1,0.6,6.8,1.9c1.6,1.3,3,3.3,4.2,6
	c2-2.8,3.9-4.8,5.8-6c1.9-1.3,4-1.9,6.5-1.9c3,0,5.6,1.1,7.8,3.4s3.3,4.9,3.3,8.1V77h-8V51.2c0-4.2-2.1-6.4-6.2-6.4
	c-2.4,0-4.4,1.1-6,3.2c-1.7,2.2-2.5,4.9-2.5,8v21h-8V52.4c0-5-2-7.5-6.1-7.5c-2.4,0-4.5,1-6.1,3.1c-1.7,2-2.5,4.6-2.5,7.5V77H319.3
	L319.3,77z M378.6,26.4c0-1.7,0.6-3.1,1.8-4.3c1.2-1.2,2.7-1.8,4.4-1.8c1.7,0,3.1,0.6,4.3,1.8c1.2,1.2,1.8,2.6,1.8,4.3
	c0,1.7-0.6,3.1-1.8,4.3c-1.2,1.2-2.6,1.8-4.3,1.8c-1.7,0-3.2-0.6-4.4-1.8C379.3,29.6,378.6,28.1,378.6,26.4z M380.9,38.9h8V77h-8
	V38.9z"/>
<path class="st0" d="M57.4,0C25.7,0,0,25.7,0,57.4s25.7,57.4,57.4,57.4s57.4-25.7,57.4-57.4C114.7,25.7,89,0,57.4,0z M57.4,109.3
	c-28.7,0-52-23.3-52-52s23.3-52,52-52s52,23.3,52,52C109.3,86.1,86.1,109.3,57.4,109.3z"/>
<path class="st1" d="M57.4,4.4c14.6,0,27.8,5.9,37.4,15.5s15.5,22.8,15.5,37.4s-5.9,27.8-15.5,37.4S72,110.3,57.4,110.3
	S29.6,104.4,20,94.8S4.4,72,4.4,57.4S10.3,29.6,19.9,20S42.7,4.4,57.4,4.4z"/>
<path class="st2" d="M93.4,21.3c-9.2-9.3-21.9-15-36-15S30.6,12,21.3,21.2c-9.3,9.3-15,22.1-15,36.2s5.7,26.8,15,36
	c9.2,9.2,22,14.9,36.1,14.9s26.8-5.7,36.1-14.9c9.2-9.2,14.9-22,14.9-36.1S102.7,30.5,93.4,21.3z"/>
<linearGradient id="SVGID_1_" gradientUnits="userSpaceOnUse" x1="33.6522" y1="45.8682" x2="43.7812" y2="28.3252" gradientTransform="matrix(1 0 0 -1 0 115.2756)">
	<stop  offset="0" style="stop-color:#F89200"/>
	<stop  offset="1" style="stop-color:#00BEF2"/>
</linearGradient>
<path class="st3" d="M32.4,69.2l1.7-1L45,87.1l-1.7,1L32.4,69.2z"/>
<linearGradient id="SVGID_2_" gradientUnits="userSpaceOnUse" x1="29.05" y1="62.2496" x2="29.05" y2="81.8046" gradientTransform="matrix(1 0 0 -1 0 115.2756)">
	<stop  offset="0" style="stop-color:#F89200"/>
	<stop  offset="1" style="stop-color:#CC1F25"/>
</linearGradient>
<path class="st4" d="M28.1,33.5H30v19.6h-1.9V33.5z"/>
<linearGradient id="SVGID_3_" gradientUnits="userSpaceOnUse" x1="35.634" y1="60.4096" x2="47.535" y2="72.3116" gradientTransform="matrix(1 0 0 -1 0 115.2756)">
	<stop  offset="0" style="stop-color:#F89200"/>
	<stop  offset="1" style="stop-color:#AAAAAA"/>
</linearGradient>
<path class="st5" d="M35.7,56.2l-1.4-1.4l13.2-13.1l1.3,1.3L35.7,56.2z"/>
<linearGradient id="SVGID_4_" gradientUnits="userSpaceOnUse" x1="37.5" y1="53.8256" x2="62.545" y2="53.8256" gradientTransform="matrix(1 0 0 -1 0 115.2756)">
	<stop  offset="0" style="stop-color:#F89200"/>
	<stop  offset="1" style="stop-color:#3273E2"/>
</linearGradient>
<path class="st6" d="M37.5,60.5h25v1.9h-25V60.5z"/>
<linearGradient id="SVGID_5_" gradientUnits="userSpaceOnUse" x1="37.0499" y1="49.2356" x2="64.6279" y2="33.3136" gradientTransform="matrix(1 0 0 -1 0 115.2756)">
	<stop  offset="0" style="stop-color:#F89200"/>
	<stop  offset="1" style="stop-color:#A680D0"/>
</linearGradient>
<path class="st7" d="M35.9,66.5l0.9-1.7l29,16.7l-1,1.7L35.9,66.5z"/>
<linearGradient id="SVGID_6_" gradientUnits="userSpaceOnUse" x1="51.7178" y1="25.3543" x2="64.5398" y2="30.1183" gradientTransform="matrix(1 0 0 -1 0 115.2756)">
	<stop  offset="0" style="stop-color:#00BEF2"/>
	<stop  offset="1" style="stop-color:#A680D0"/>
</linearGradient>
<path class="st8" d="M51.5,91l-0.7-1.8l14-5.1l0.6,1.8L51.5,91z"/>
<linearGradient id="SVGID_7_" gradientUnits="userSpaceOnUse" x1="85.716" y1="34.7539" x2="71.303" y2="32.0009" gradientTransform="matrix(1 0 0 -1 0 115.2756)">
	<stop  offset="0" style="stop-color:#FF4C9F"/>
	<stop  offset="1" style="stop-color:#A680D0"/>
</linearGradient>
<path class="st9" d="M85.9,79.5l0.3,1.9l-15.1,2.9l-0.3-1.9L85.9,79.5z"/>
<linearGradient id="SVGID_8_" gradientUnits="userSpaceOnUse" x1="49.668" y1="92.823" x2="32.555" y2="86.237" gradientTransform="matrix(1 0 0 -1 0 115.2756)">
	<stop  offset="0" style="stop-color:#5CD551"/>
	<stop  offset="1" style="stop-color:#CE0003"/>
</linearGradient>
<path class="st10" d="M49.9,21.3l0.7,1.8l-18.3,7.1l-0.7-1.8L49.9,21.3z"/>
<linearGradient id="SVGID_9_" gradientUnits="userSpaceOnUse" x1="52.055" y1="81.4139" x2="52.845" y2="90.9379" gradientTransform="matrix(1 0 0 -1 0 115.2756)">
	<stop  offset="0" style="stop-color:#AAAAAA"/>
	<stop  offset="0.184" style="stop-color:#A2AEA1"/>
	<stop  offset="0.484" style="stop-color:#8DBA89"/>
	<stop  offset="0.861" style="stop-color:#6ACD61"/>
	<stop  offset="1" style="stop-color:#5CD551"/>
</linearGradient>
<path class="st11" d="M53,34.1l-1.9-0.2l0.8-9.8l1.9,0.2L53,34.1z"/>
<linearGradient id="SVGID_10_" gradientUnits="userSpaceOnUse" x1="84.1127" y1="80.3857" x2="56.5697" y2="92.6007" gradientTransform="matrix(1 0 0 -1 0 115.2756)">
	<stop  offset="0" style="stop-color:#F8BF00"/>
	<stop  offset="1" style="stop-color:#5CD551"/>
</linearGradient>
<path class="st12" d="M85.1,34.3L84.4,36L55.6,23.3l0.7-1.8L85.1,34.3z"/>
<linearGradient id="SVGID_11_" gradientUnits="userSpaceOnUse" x1="84.2827" y1="77.8746" x2="56.5397" y2="76.5776" gradientTransform="matrix(1 0 0 -1 0 115.2756)">
	<stop  offset="0" style="stop-color:#F8BF00"/>
	<stop  offset="0.6" style="stop-color:#B6AD91"/>
	<stop  offset="1" style="stop-color:#AAAAAA"/>
</linearGradient>
<path class="st13" d="M84.3,36.4l0.1,2l-27.9,1.3l-0.1-2L84.3,36.4z"/>
<linearGradient id="SVGID_12_" gradientUnits="userSpaceOnUse" x1="65.9191" y1="50.5965" x2="67.6411" y2="34.4275" gradientTransform="matrix(1 0 0 -1 0 115.2756)">
	<stop  offset="0" style="stop-color:#3273E2"/>
	<stop  offset="0.99" style="stop-color:#A680D0"/>
</linearGradient>
<path class="st14" d="M64.9,64.6l2-0.2l1.7,16.5l-1.9,0.2L64.9,64.6z"/>
<linearGradient id="SVGID_13_" gradientUnits="userSpaceOnUse" x1="54.5663" y1="71.5399" x2="63.5383" y2="57.1039" gradientTransform="matrix(1 0 0 -1 0 115.2756)">
	<stop  offset="0" style="stop-color:#AAAAAA"/>
	<stop  offset="1" style="stop-color:#3273E2"/>
</linearGradient>
<path class="st15" d="M53.3,43.6l1.7-1.1l9.8,15.8l-1.7,1.1L53.3,43.6z"/>
<linearGradient id="SVGID_14_" gradientUnits="userSpaceOnUse" x1="88.4131" y1="73.0412" x2="86.4881" y2="60.3172" gradientTransform="matrix(1 0 0 -1 0 115.2756)">
	<stop  offset="0" style="stop-color:#F8BF00"/>
	<stop  offset="1" style="stop-color:#00BC9B"/>
</linearGradient>
<path class="st16" d="M87.5,41.8l1.9,0.3l-2,13.3l-1.9-0.3L87.5,41.8z"/>
<linearGradient id="SVGID_15_" gradientUnits="userSpaceOnUse" x1="80.678" y1="54.867" x2="68.845" y2="54.039" gradientTransform="matrix(1 0 0 -1 0 115.2756)">
	<stop  offset="0" style="stop-color:#00BC9B"/>
	<stop  offset="0.99" style="stop-color:#3273E2"/>
</linearGradient>
<path class="st17" d="M80.7,59.4l0.2,2l-12.1,0.8l-0.2-1.9L80.7,59.4z"/>
<linearGradient id="SVGID_16_" gradientUnits="userSpaceOnUse" x1="86.5375" y1="50.0982" x2="88.4645" y2="38.7412" gradientTransform="matrix(1 0 0 -1 0 115.2756)">
	<stop  offset="0" style="stop-color:#00BC9B"/>
	<stop  offset="1" style="stop-color:#FF4C9F"/>
</linearGradient>
<path class="st18" d="M85.5,65l1.9-0.3l2.1,12L87.6,77L85.5,65z"/>
<path class="st19" d="M29.9,52.7c4.8,0.5,8.4,4.7,7.9,9.6c-0.5,4.8-4.7,8.4-9.6,7.9c-4.8-0.5-8.4-4.7-7.9-9.6
	C20.8,55.8,25.1,52.2,29.9,52.7z"/>
<path class="st20" d="M86.2,54.8c2.9,0.3,5,2.8,4.8,5.7c-0.3,2.9-2.8,5-5.7,4.8c-2.9-0.3-5-2.8-4.8-5.7S83.3,54.6,86.2,54.8z"/>
<path class="st21" d="M89.7,31.9c2.9,0.3,5,2.8,4.8,5.7c-0.3,2.9-2.8,5-5.7,4.8c-2.9-0.3-5-2.8-4.8-5.7S86.8,31.6,89.7,31.9z"/>
<path class="st22" d="M53.4,17.6c1.9,0.2,3.4,1.9,3.2,3.8s-1.9,3.4-3.8,3.2c-1.9-0.2-3.4-1.9-3.2-3.8S51.5,17.5,53.4,17.6z"/>
<path class="st23" d="M89.3,76.4c1.9,0.2,3.4,1.9,3.2,3.8c-0.2,1.9-1.9,3.4-3.8,3.2c-1.9-0.2-3.4-1.9-3.2-3.8
	C85.7,77.6,87.4,76.2,89.3,76.4z"/>
<path class="st24" d="M41.4,92.7c-0.5-2.9,1.5-5.6,4.3-6.1c2.9-0.5,5.6,1.5,6.1,4.3c0.5,2.9-1.5,5.6-4.3,6.1
	C44.6,97.5,41.9,95.6,41.4,92.7z"/>
<path class="st25" d="M32.4,31.6c-0.7,1.8-2.7,2.7-4.5,2.1C26,33,25.1,31,25.8,29.2c0.7-1.8,2.7-2.7,4.5-2.1
	C32.1,27.8,33,29.8,32.4,31.6z"/>
<path class="st1" d="M53.8,43.7c-2.6,1.2-5.8,0-7-2.6s0-5.8,2.6-7s5.8,0,7,2.6C57.6,39.4,56.4,42.5,53.8,43.7z"/>
<path class="st26" d="M64.4,64.7c-1.8-0.7-2.7-2.7-2.1-4.5c0.7-1.8,2.7-2.7,4.5-2.1c1.8,0.7,2.7,2.7,2.1,4.5
	C68.2,64.5,66.2,65.4,64.4,64.7z"/>
<path class="st27" d="M65.3,86.1c-1.2-1.5-1-3.7,0.5-4.9c1.5-1.2,3.7-1,4.9,0.5c1.2,1.5,1,3.7-0.5,4.9
	C68.7,87.8,66.5,87.6,65.3,86.1z"/>
</svg>
