<svg xmlns="http://www.w3.org/2000/svg" viewBox="0 0 1008 1200"><defs><style>.cls-1{fill:#01abff;}.cls-2{fill:#0057ff;}</style></defs><g id="Layer_2" data-name="Layer 2"><g id="Layer_1-2" data-name="Layer 1"><path class="cls-1" d="M766.09,17.32v231a34.83,34.83,0,0,1-16.82,29.78l-1.44.85L693.77,310,379.5,490.82l-38.15,21.94s-.09,0-.11.1a8.81,8.81,0,0,0-1.81,1,17.42,17.42,0,0,0,0,28.93,12.1,12.1,0,0,0,1.44.85l43.22,24.86,147.08,84.61a.15.15,0,0,1,.1.05l2.61,1.53,0,0a17.3,17.3,0,0,1,0,28.48l-2.55,1.44L262.47,839.35l-1.49.85a34.44,34.44,0,0,1-16.61,4.23A35.37,35.37,0,0,1,229.25,841l-1.49-.79-2.29-1.33L69.83,749.35,18.26,719.66a14.58,14.58,0,0,1-1.45-.84A34.34,34.34,0,0,1,4.73,706.48,33.89,33.89,0,0,1,0,689.09V448a34.63,34.63,0,0,1,16.4-29.48,1.76,1.76,0,0,1,.41-.28,14.88,14.88,0,0,1,1.75-1,1.17,1.17,0,0,0,.25-.16l51-29.36,172.09-99L449.35,169.49,738.9,3a12.39,12.39,0,0,1,1.45-.84A17,17,0,0,1,748.66,0a17.43,17.43,0,0,1,17.45,17.39Z"/><path class="cls-2" d="M1008,510.89V751.94a34.69,34.69,0,0,1-16.81,29.73c-.49.32-1,.59-1.45.85l-51.57,29.69-65.24,37.52L766.09,911.18,558.67,1030.51,269.16,1197a12.88,12.88,0,0,1-1.44.84,17.16,17.16,0,0,1-8.35,2.13,17.44,17.44,0,0,1-17.46-17.4v-231a34.68,34.68,0,0,1,16.81-29.73c.69-.44,1.43-.85,2.14-1.21l53.38-30.75L628.5,709.11l37.66-21.65a.14.14,0,0,0,.09,0l2.41-1.37a2.24,2.24,0,0,1,.26-.16,17.39,17.39,0,0,0,7.45-14.27,17.61,17.61,0,0,0-7.71-14.46,12.11,12.11,0,0,0-1.74-1l-43-24.75L476.8,546.79a.16.16,0,0,1-.09,0l-2.82-1.65-.05,0a17.28,17.28,0,0,1-.06-28.16s0,0,.09,0l2.93-1.69a2.3,2.3,0,0,1,.44-.25l268-154.18,2.09-1.21a34.94,34.94,0,0,1,32.37-.09l2.29,1.33,156.16,89.82,51.58,29.68a15.47,15.47,0,0,1,1.44.85,34.37,34.37,0,0,1,12.09,12.34,33.89,33.89,0,0,1,4.72,17.39Z"/></g></g></svg>