<svg data-name="Layer 1" xmlns="http://www.w3.org/2000/svg" viewBox="0 0 104 64"><path fill="#1f2730" d="M35 31.36h-2.7v-2.62a.19.19 0 00-.2-.19h-2.76a.19.19 0 00-.19.19v2.62H27.6a.19.19 0 00-.19.19v2.5a.2.2 0 00.19.19h1.55v5.33c0 4.33 3.5 4.82 5.3 4.82H35a.19.19 0 00.19-.19v-2.5a.19.19 0 00-.19-.19h-.51a2.12 2.12 0 01-2.14-2.39v-4.88H35a.2.2 0 00.19-.19v-2.5a.19.19 0 00-.19-.19zM9.8 28a.2.2 0 00-.18-.12h-3.2a.2.2 0 00-.18.12L0 44.13a.2.2 0 00.18.26h3a.19.19 0 00.18-.13l.94-2.76h7.32l.95 2.76a.19.19 0 00.18.13h3.07a.19.19 0 00.18-.26zM5.35 38.58L8 30.86l2.65 7.72zM26 40.42a.19.19 0 00-.29-.05 5.87 5.87 0 01-3.62 1.48 3.92 3.92 0 01-4-4.05 3.83 3.83 0 013.92-4 5 5 0 013.2 1.24.2.2 0 00.29 0l1.21-1.88a.18.18 0 000-.24 6.73 6.73 0 00-4.85-1.81 6.76 6.76 0 100 13.51 7.46 7.46 0 005.21-2 .2.2 0 000-.23zM60 44.1l-4.1-6.35 4-6.1a.19.19 0 00-.16-.29H56.5a.19.19 0 00-.17.09l-2 3.44c-.2.33-.43.81-.43.81a8.2 8.2 0 00-.43-.81l-2-3.44a.2.2 0 00-.17-.09h-5.83a.19.19 0 00-.18.13l-2.5 7.41c-.22.67-.41 1.23-.42 1.25s-.23-.64-.48-1.31l-2.7-7.36a.2.2 0 00-.18-.12h-3.23a.19.19 0 00-.18.26l5.33 12.77-.23.69a2.77 2.77 0 01-2.42 1.86h-1.51a.2.2 0 00-.19.2v2.5a.19.19 0 00.19.19h1.65a5.07 5.07 0 004.68-3.57l5.37-13.9L52 37.75l-4.21 6.35a.19.19 0 00.16.29h3.1a.2.2 0 00.17-.09l2.32-3.76a5.29 5.29 0 00.35-.69 6 6 0 00.36.69l2.24 3.76a.17.17 0 00.16.09h3.11a.19.19 0 00.24-.29z"/></svg>