<svg xmlns="http://www.w3.org/2000/svg" viewBox="0 0 1001.6 469.2"><path d="M1 342.9a25.14 25.14 0 004.3 13.4 115.78 115.78 0 0011 13.7c4.5 4.6 9.3 9.3 14.4 13.9 5.3 4.5 10.1 8.8 14.4 13a89.66 89.66 0 0111 12c3 3.7 4.6 7 4.6 9.8V448H42.5c-6.4 0-11.6-1.9-15.6-5.8-3.8-3.8-5.8-8.8-5.8-14.9H1a39.77 39.77 0 003.1 15.8 43.46 43.46 0 008.9 12.7 46.46 46.46 0 0013.2 8.9 42.59 42.59 0 0016.3 3.1h16.8a42.33 42.33 0 0016.6-3.1 40.06 40.06 0 0013-8.9 39.25 39.25 0 008.4-13 39.85 39.85 0 003.1-15.6v-14.6a27.17 27.17 0 00-4.6-14.6 82.76 82.76 0 00-11-14.9 148.07 148.07 0 00-14.2-14.4c-5.2-4.6-9.9-9-14.4-13-4.3-4.2-8-7.9-11-11.3s-4.3-6.2-4.3-8.6v-28.3h15.8c7.7 0 13.6 1.8 17.8 5.5 4.3 3.5 6.5 8.5 6.5 14.9h19.7a35.35 35.35 0 00-3.4-15.4 34.77 34.77 0 00-8.9-12.7 38.33 38.33 0 00-13-8.6 38.66 38.66 0 00-15.8-3.4h-17a42.23 42.23 0 00-16.3 3.1 43.63 43.63 0 00-13.2 8.6 44.13 44.13 0 00-8.9 13 39.1 39.1 0 00-3.2 16zM240.3 288h-120v19.9h40.1V468h39.8V307.9h40.1V288zm61 180h38.2a38.19 38.19 0 0015.4-3.1 42.32 42.32 0 0013-8.9 44.9 44.9 0 009.1-13 38.09 38.09 0 003.4-15.6v-98.9a34.15 34.15 0 00-3.4-14.9 42.12 42.12 0 00-21.6-22.1 35.85 35.85 0 00-15.8-3.6h-38.2a35.54 35.54 0 00-15.8 3.6 41.2 41.2 0 00-13 9.1 44.13 44.13 0 00-8.9 13 36.86 36.86 0 00-3.1 14.9v98.9A36.87 36.87 0 00264 443a47.71 47.71 0 008.9 13 48.42 48.42 0 0013 8.9 39.21 39.21 0 0015.4 3.1zm39.1-20.2h-40.1V307.9h40.1zm120-80.2v-60h40.1v60zM420.5 468h39.8v-80h40.1v80h39.8v-55.7c0-6.9-1.1-12.5-3.4-16.8a37.28 37.28 0 00-7.4-10.6 23 23 0 00-7.2-5.5l-3.4-1.7 3.4-1.2a23.17 23.17 0 007.2-4.6 35.44 35.44 0 007.4-9.8c2.2-4.3 3.4-9.9 3.4-16.8V328a45 45 0 00-2.9-16.3 33.76 33.76 0 00-7.9-12.7 38.09 38.09 0 00-12.7-8.2 43.86 43.86 0 00-16.3-2.9h-79.9zm201.6-180a34.33 34.33 0 00-14.4 3.4 47.2 47.2 0 00-22.8 21.9 35.11 35.11 0 00-3.6 15.4V468h39.8v-80h39.4v80a66 66 0 007.4.2h11.8c4.3 0 8.4-.1 12.2-.2h8.6V328.5a32.21 32.21 0 00-3.8-15.1 46.84 46.84 0 00-9.8-13 43.25 43.25 0 00-13.2-9.1 36.07 36.07 0 00-14.6-3.4h-37zm-.9 79.6v-60h39.4v60zm179.2 20.2h20.2v60h-40.1V307.9h44.2a14.11 14.11 0 0111.8 5.5c2.9 3.5 4.3 8.6 4.3 15.1h19.7a34.15 34.15 0 00-3.4-14.9 41.2 41.2 0 00-9.1-13 44.49 44.49 0 00-13.2-9.1 35.11 35.11 0 00-15.4-3.6h-38.2a35.54 35.54 0 00-15.8 3.6 41.2 41.2 0 00-13 9.1 40.18 40.18 0 00-8.6 13.2 36.86 36.86 0 00-3.1 14.9v98.4a39.77 39.77 0 003.1 15.8 42.69 42.69 0 008.6 13 44 44 0 0012.7 8.9 40.89 40.89 0 0016.1 3.1h38.4a39.93 39.93 0 0029.3-12.3 36.43 36.43 0 008.4-13 39.85 39.85 0 003.1-15.6v-59.8h-60zm180.3.2v-20.4h-40.1v-59.8h60V288h-99.8v180h99.8v-20.2h-60V388z" fill="#f5c32c"/><path d="M1 342.9a25.14 25.14 0 004.3 13.4 115.78 115.78 0 0011 13.7c4.5 4.6 9.3 9.3 14.4 13.9 5.3 4.5 10.1 8.8 14.4 13a89.66 89.66 0 0111 12c3 3.7 4.6 7 4.6 9.8V448H42.5c-6.4 0-11.6-1.9-15.6-5.8-3.8-3.8-5.8-8.8-5.8-14.9H1a39.77 39.77 0 003.1 15.8 43.46 43.46 0 008.9 12.7 46.46 46.46 0 0013.2 8.9 42.59 42.59 0 0016.3 3.1h16.8a42.33 42.33 0 0016.6-3.1 40.06 40.06 0 0013-8.9 39.25 39.25 0 008.4-13 39.85 39.85 0 003.1-15.6v-14.6a27.17 27.17 0 00-4.6-14.6 82.76 82.76 0 00-11-14.9 148.07 148.07 0 00-14.2-14.4c-5.2-4.6-9.9-9-14.4-13-4.3-4.2-8-7.9-11-11.3s-4.3-6.2-4.3-8.6v-28.3h15.8c7.7 0 13.6 1.8 17.8 5.5 4.3 3.5 6.5 8.5 6.5 14.9h19.7a35.35 35.35 0 00-3.4-15.4 34.77 34.77 0 00-8.9-12.7 38.33 38.33 0 00-13-8.6 38.66 38.66 0 00-15.8-3.4h-17a42.23 42.23 0 00-16.3 3.1 43.63 43.63 0 00-13.2 8.6 44.13 44.13 0 00-8.9 13 39.1 39.1 0 00-3.2 16zM240.3 288h-120v19.9h40.1V468h39.8V307.9h40.1V288zm61 180h38.2a38.19 38.19 0 0015.4-3.1 42.32 42.32 0 0013-8.9 44.9 44.9 0 009.1-13 38.09 38.09 0 003.4-15.6v-98.9a34.15 34.15 0 00-3.4-14.9 42.12 42.12 0 00-21.6-22.1 35.85 35.85 0 00-15.8-3.6h-38.2a35.54 35.54 0 00-15.8 3.6 41.2 41.2 0 00-13 9.1 44.13 44.13 0 00-8.9 13 36.86 36.86 0 00-3.1 14.9v98.9A36.87 36.87 0 00264 443a47.71 47.71 0 008.9 13 48.42 48.42 0 0013 8.9 39.21 39.21 0 0015.4 3.1zm39.1-20.2h-40.1V307.9h40.1zm120-80.2v-60h40.1v60zM420.5 468h39.8v-80h40.1v80h39.8v-55.7c0-6.9-1.1-12.5-3.4-16.8a37.28 37.28 0 00-7.4-10.6 23 23 0 00-7.2-5.5l-3.4-1.7 3.4-1.2a23.17 23.17 0 007.2-4.6 35.44 35.44 0 007.4-9.8c2.2-4.3 3.4-9.9 3.4-16.8V328a45 45 0 00-2.9-16.3 33.76 33.76 0 00-7.9-12.7 38.09 38.09 0 00-12.7-8.2 43.86 43.86 0 00-16.3-2.9h-79.9zm201.6-180a34.33 34.33 0 00-14.4 3.4 47.2 47.2 0 00-22.8 21.9 35.11 35.11 0 00-3.6 15.4V468h39.8v-80h39.4v80a66 66 0 007.4.2h11.8c4.3 0 8.4-.1 12.2-.2h8.6V328.5a32.21 32.21 0 00-3.8-15.1 46.84 46.84 0 00-9.8-13 43.25 43.25 0 00-13.2-9.1 36.07 36.07 0 00-14.6-3.4h-37zm-.9 79.6v-60h39.4v60zm179.2 20.2h20.2v60h-40.1V307.9h44.2a14.11 14.11 0 0111.8 5.5c2.9 3.5 4.3 8.6 4.3 15.1h19.7a34.15 34.15 0 00-3.4-14.9 41.2 41.2 0 00-9.1-13 44.49 44.49 0 00-13.2-9.1 35.11 35.11 0 00-15.4-3.6h-38.2a35.54 35.54 0 00-15.8 3.6 41.2 41.2 0 00-13 9.1 40.18 40.18 0 00-8.6 13.2 36.86 36.86 0 00-3.1 14.9v98.4a39.77 39.77 0 003.1 15.8 42.69 42.69 0 008.6 13 44 44 0 0012.7 8.9 40.89 40.89 0 0016.1 3.1h38.4a39.93 39.93 0 0029.3-12.3 36.43 36.43 0 008.4-13 39.85 39.85 0 003.1-15.6v-59.8h-60zm180.3.2v-20.4h-40.1v-59.8h60V288h-99.8v180h99.8v-20.2h-60V388z" fill="none" stroke="#000" stroke-width="2"/><path d="M1 332.7a25.14 25.14 0 004.3 13.4 115.78 115.78 0 0011 13.7c4.5 4.6 9.3 9.3 14.4 13.9 5.3 4.5 10.1 8.8 14.4 13a89.66 89.66 0 0111 12c3 3.7 4.6 7 4.6 9.8v29.3H42.5c-6.4 0-11.6-1.9-15.6-5.8-3.8-3.8-5.8-8.8-5.8-14.9H1a39.77 39.77 0 003.1 15.8 43.46 43.46 0 008.9 12.7 46.46 46.46 0 0013.2 8.9 42.59 42.59 0 0016.3 3.1h16.8a42.33 42.33 0 0016.6-3.1 40.06 40.06 0 0013-8.9 39.25 39.25 0 008.4-13 39.85 39.85 0 003.1-15.6v-14.6a27.17 27.17 0 00-4.6-14.6 82.76 82.76 0 00-11-14.9 148.07 148.07 0 00-14.2-14.4c-5.2-4.6-9.9-9-14.4-13-4.3-4.2-8-7.9-11-11.3s-4.3-6.2-4.3-8.6v-28.3h15.8c7.7 0 13.6 1.8 17.8 5.5 4.3 3.5 6.5 8.5 6.5 14.9h19.7a35.35 35.35 0 00-3.4-15.4 34.77 34.77 0 00-8.9-12.7 38.33 38.33 0 00-13-8.6 38.66 38.66 0 00-15.8-3.4h-17a42.23 42.23 0 00-16.3 3.1 43.63 43.63 0 00-13.2 8.6 44.13 44.13 0 00-8.9 13 38.45 38.45 0 00-3.2 16zm239.3-55h-120v19.9h40.1v160.1h39.8V297.6h40.1v-19.9zm61 180h38.2a38.19 38.19 0 0015.4-3.1 42.32 42.32 0 0013-8.9 44.9 44.9 0 009.1-13 38.09 38.09 0 003.4-15.6v-98.9a34.15 34.15 0 00-3.4-14.9 42.12 42.12 0 00-21.6-22.1 35.85 35.85 0 00-15.8-3.6h-38.2a35.54 35.54 0 00-15.8 3.6 41.2 41.2 0 00-13 9.1 44.13 44.13 0 00-8.9 13 36.86 36.86 0 00-3.1 14.9v98.9a36.87 36.87 0 003.4 15.6 47.71 47.71 0 008.9 13 48.42 48.42 0 0013 8.9 37.51 37.51 0 0015.4 3.1zm39.1-20.1h-40.1v-140h40.1zm120-80.2v-60h40.1v60zm-39.9 100.3h39.8v-79.9h40.1v79.9h39.8V402c0-6.9-1.1-12.5-3.4-16.8a37.28 37.28 0 00-7.4-10.6 23 23 0 00-7.2-5.5l-3.4-1.7 3.4-1.2a23.17 23.17 0 007.2-4.6 35.44 35.44 0 007.4-9.8c2.2-4.3 3.4-9.9 3.4-16.8v-17.3a45 45 0 00-2.9-16.3 33.76 33.76 0 00-7.9-12.7 38.09 38.09 0 00-12.7-8.2 43.86 43.86 0 00-16.3-2.9h-79.9zm201.6-180a34.33 34.33 0 00-14.4 3.4 47.2 47.2 0 00-22.8 21.9 35.11 35.11 0 00-3.6 15.4v139.4h39.8v-79.9h39.4v79.9a66 66 0 007.4.2h11.8c4.3 0 8.4-.1 12.2-.2h8.6V318.3a32.21 32.21 0 00-3.8-15.1 46.84 46.84 0 00-9.8-13 43.25 43.25 0 00-13.2-9.1 36.07 36.07 0 00-14.6-3.4zm-.9 79.7v-60h39.4v60zm179.2 20.2h20.2v60h-40.1v-140h44.2a14.11 14.11 0 0111.8 5.5c2.9 3.5 4.3 8.6 4.3 15.1h19.7a34.15 34.15 0 00-3.4-14.9 41.2 41.2 0 00-9.1-13 44.49 44.49 0 00-13.2-9.1 35.11 35.11 0 00-15.4-3.6h-38.2a35.54 35.54 0 00-15.8 3.6 41.2 41.2 0 00-13 9.1 40.18 40.18 0 00-8.6 13.2 36.86 36.86 0 00-3.1 14.9v98.4a39.77 39.77 0 003.1 15.8 42.69 42.69 0 008.6 13 44 44 0 0012.7 8.9 40.89 40.89 0 0016.1 3.1h38.4a39.93 39.93 0 0029.3-12.3 36.43 36.43 0 008.4-13 39.85 39.85 0 003.1-15.6v-59.8h-60zm180.3.2v-20.4h-40.1v-59.8h60v-19.9h-99.8v180h99.8v-20.2h-60v-59.8h40.1z" fill="#f5c32c"/><path d="M1 332.7a25.14 25.14 0 004.3 13.4 115.78 115.78 0 0011 13.7c4.5 4.6 9.3 9.3 14.4 13.9 5.3 4.5 10.1 8.8 14.4 13a89.66 89.66 0 0111 12c3 3.7 4.6 7 4.6 9.8v29.3H42.5c-6.4 0-11.6-1.9-15.6-5.8-3.8-3.8-5.8-8.8-5.8-14.9H1a39.77 39.77 0 003.1 15.8 43.46 43.46 0 008.9 12.7 46.46 46.46 0 0013.2 8.9 42.59 42.59 0 0016.3 3.1h16.8a42.33 42.33 0 0016.6-3.1 40.06 40.06 0 0013-8.9 39.25 39.25 0 008.4-13 39.85 39.85 0 003.1-15.6v-14.6a27.17 27.17 0 00-4.6-14.6 82.76 82.76 0 00-11-14.9 148.07 148.07 0 00-14.2-14.4c-5.2-4.6-9.9-9-14.4-13-4.3-4.2-8-7.9-11-11.3s-4.3-6.2-4.3-8.6v-28.3h15.8c7.7 0 13.6 1.8 17.8 5.5 4.3 3.5 6.5 8.5 6.5 14.9h19.7a35.35 35.35 0 00-3.4-15.4 34.77 34.77 0 00-8.9-12.7 38.33 38.33 0 00-13-8.6 38.66 38.66 0 00-15.8-3.4h-17a42.23 42.23 0 00-16.3 3.1 43.63 43.63 0 00-13.2 8.6 44.13 44.13 0 00-8.9 13 38.45 38.45 0 00-3.2 16zm239.3-55h-120v19.9h40.1v160.1h39.8V297.6h40.1v-19.9zm61 180h38.2a38.19 38.19 0 0015.4-3.1 42.32 42.32 0 0013-8.9 44.9 44.9 0 009.1-13 38.09 38.09 0 003.4-15.6v-98.9a34.15 34.15 0 00-3.4-14.9 42.12 42.12 0 00-21.6-22.1 35.85 35.85 0 00-15.8-3.6h-38.2a35.54 35.54 0 00-15.8 3.6 41.2 41.2 0 00-13 9.1 44.13 44.13 0 00-8.9 13 36.86 36.86 0 00-3.1 14.9v98.9a36.87 36.87 0 003.4 15.6 47.71 47.71 0 008.9 13 48.42 48.42 0 0013 8.9 37.51 37.51 0 0015.4 3.1zm39.1-20.1h-40.1v-140h40.1zm120-80.2v-60h40.1v60zm-39.9 100.3h39.8v-79.9h40.1v79.9h39.8V402c0-6.9-1.1-12.5-3.4-16.8a37.28 37.28 0 00-7.4-10.6 23 23 0 00-7.2-5.5l-3.4-1.7 3.4-1.2a23.17 23.17 0 007.2-4.6 35.44 35.44 0 007.4-9.8c2.2-4.3 3.4-9.9 3.4-16.8v-17.3a45 45 0 00-2.9-16.3 33.76 33.76 0 00-7.9-12.7 38.09 38.09 0 00-12.7-8.2 43.86 43.86 0 00-16.3-2.9h-79.9zm201.6-180a34.33 34.33 0 00-14.4 3.4 47.2 47.2 0 00-22.8 21.9 35.11 35.11 0 00-3.6 15.4v139.4h39.8v-79.9h39.4v79.9a66 66 0 007.4.2h11.8c4.3 0 8.4-.1 12.2-.2h8.6V318.3a32.21 32.21 0 00-3.8-15.1 46.84 46.84 0 00-9.8-13 43.25 43.25 0 00-13.2-9.1 36.07 36.07 0 00-14.6-3.4zm-.9 79.7v-60h39.4v60zm179.2 20.2h20.2v60h-40.1v-140h44.2a14.11 14.11 0 0111.8 5.5c2.9 3.5 4.3 8.6 4.3 15.1h19.7a34.15 34.15 0 00-3.4-14.9 41.2 41.2 0 00-9.1-13 44.49 44.49 0 00-13.2-9.1 35.11 35.11 0 00-15.4-3.6h-38.2a35.54 35.54 0 00-15.8 3.6 41.2 41.2 0 00-13 9.1 40.18 40.18 0 00-8.6 13.2 36.86 36.86 0 00-3.1 14.9v98.4a39.77 39.77 0 003.1 15.8 42.69 42.69 0 008.6 13 44 44 0 0012.7 8.9 40.89 40.89 0 0016.1 3.1h38.4a39.93 39.93 0 0029.3-12.3 36.43 36.43 0 008.4-13 39.85 39.85 0 003.1-15.6v-59.8h-60zm180.3.2v-20.4h-40.1v-59.8h60v-19.9h-99.8v180h99.8v-20.2h-60v-59.8h40.1z" fill="none" stroke="#000" stroke-width="2"/><path d="M1 322.4a25.14 25.14 0 004.3 13.4 115.78 115.78 0 0011 13.7c4.5 4.6 9.3 9.3 14.4 13.9 5.3 4.5 10.1 8.8 14.4 13a89.66 89.66 0 0111 12c3 3.7 4.6 7 4.6 9.8v29.3H42.5c-6.4 0-11.6-1.9-15.6-5.8-3.8-3.8-5.8-8.8-5.8-14.9H1a39.77 39.77 0 003.1 15.8 43.46 43.46 0 008.9 12.7 46.46 46.46 0 0013.2 8.9 42.59 42.59 0 0016.3 3.1h16.8a42.33 42.33 0 0016.6-3.1 40.06 40.06 0 0013-8.9 39.25 39.25 0 008.4-13 39.85 39.85 0 003.1-15.6v-14.6a27.17 27.17 0 00-4.6-14.6 82.76 82.76 0 00-11-14.9 148.07 148.07 0 00-14.2-14.4c-5.2-4.6-9.9-9-14.4-13-4.3-4.2-8-7.9-11-11.3s-4.3-6.2-4.3-8.6V287h15.8c7.7 0 13.6 1.8 17.8 5.5 4.3 3.5 6.5 8.5 6.5 14.9h19.7a35.35 35.35 0 00-3.4-15.4 34.77 34.77 0 00-8.9-12.7 38.33 38.33 0 00-13-8.6 38.66 38.66 0 00-15.8-3.4h-17a42.23 42.23 0 00-16.3 3.1 43.63 43.63 0 00-13.2 8.6 44.13 44.13 0 00-8.9 13A39.1 39.1 0 001 308zm239.3-54.9h-120v19.9h40.1v160.1h39.8V287.4h40.1v-19.9zm61 180h38.2a38.19 38.19 0 0015.4-3.1 42.32 42.32 0 0013-8.9 44.9 44.9 0 009.1-13 38.09 38.09 0 003.4-15.6V308a34.15 34.15 0 00-3.4-14.9 42.12 42.12 0 00-21.6-22.1 35.85 35.85 0 00-15.8-3.6h-38.2a35.54 35.54 0 00-15.8 3.6 41.2 41.2 0 00-13 9.1 44.13 44.13 0 00-8.9 13 36.86 36.86 0 00-3.1 14.9v98.9a36.87 36.87 0 003.4 15.6 47.71 47.71 0 008.9 13 48.42 48.42 0 0013 8.9 39.21 39.21 0 0015.4 3.1zm39.1-20.2h-40.1V287.4h40.1zm120-80.1v-60h40.1v60zm-39.9 100.3h39.8v-79.9h40.1v79.9h39.8v-55.7c0-6.9-1.1-12.5-3.4-16.8a37.28 37.28 0 00-7.4-10.6 23 23 0 00-7.2-5.5l-3.4-1.7 3.4-1.2a23.17 23.17 0 007.2-4.6 35.44 35.44 0 007.4-9.8c2.2-4.3 3.4-9.9 3.4-16.8v-17.3a45 45 0 00-2.9-16.3 33.76 33.76 0 00-7.9-12.7 38.09 38.09 0 00-12.7-8.2 43.86 43.86 0 00-16.3-2.9h-79.9zm201.6-180a34.33 34.33 0 00-14.4 3.4 47.2 47.2 0 00-22.8 21.9 35.11 35.11 0 00-3.6 15.4v139.4h39.8v-79.9h39.4v79.9a66 66 0 007.4.2h11.8c4.3 0 8.4-.1 12.2-.2h8.6V308a32.21 32.21 0 00-3.8-15.1 46.84 46.84 0 00-9.8-13 43.25 43.25 0 00-13.2-9.1 36.07 36.07 0 00-14.6-3.4zm-.9 79.7v-60h39.4v60zm179.2 20.1h20.2v60h-40.1V287.4h44.2a14.11 14.11 0 0111.8 5.5c2.9 3.5 4.3 8.6 4.3 15.1h19.7a34.15 34.15 0 00-3.4-14.9 41.2 41.2 0 00-9.1-13 44.49 44.49 0 00-13.2-9.1 35.11 35.11 0 00-15.4-3.6h-38.2a35.54 35.54 0 00-15.8 3.6 41.2 41.2 0 00-13 9.1 40.18 40.18 0 00-8.6 13.2 36.86 36.86 0 00-3.1 14.9v98.4a39.77 39.77 0 003.1 15.8 42.69 42.69 0 008.6 13 44 44 0 0012.7 8.9 40.89 40.89 0 0016.1 3.1h38.4a39.93 39.93 0 0029.3-12.3 36.43 36.43 0 008.4-13 39.85 39.85 0 003.1-15.6v-59.8h-60zm180.3.3v-20.4h-40.1v-59.8h60v-19.9h-99.8v180h99.8v-20.2h-60v-59.8z" fill="#f5c32c"/><path d="M1 322.4a25.14 25.14 0 004.3 13.4 115.78 115.78 0 0011 13.7c4.5 4.6 9.3 9.3 14.4 13.9 5.3 4.5 10.1 8.8 14.4 13a89.66 89.66 0 0111 12c3 3.7 4.6 7 4.6 9.8v29.3H42.5c-6.4 0-11.6-1.9-15.6-5.8-3.8-3.8-5.8-8.8-5.8-14.9H1a39.77 39.77 0 003.1 15.8 43.46 43.46 0 008.9 12.7 46.46 46.46 0 0013.2 8.9 42.59 42.59 0 0016.3 3.1h16.8a42.33 42.33 0 0016.6-3.1 40.06 40.06 0 0013-8.9 39.25 39.25 0 008.4-13 39.85 39.85 0 003.1-15.6v-14.6a27.17 27.17 0 00-4.6-14.6 82.76 82.76 0 00-11-14.9 148.07 148.07 0 00-14.2-14.4c-5.2-4.6-9.9-9-14.4-13-4.3-4.2-8-7.9-11-11.3s-4.3-6.2-4.3-8.6V287h15.8c7.7 0 13.6 1.8 17.8 5.5 4.3 3.5 6.5 8.5 6.5 14.9h19.7a35.35 35.35 0 00-3.4-15.4 34.77 34.77 0 00-8.9-12.7 38.33 38.33 0 00-13-8.6 38.66 38.66 0 00-15.8-3.4h-17a42.23 42.23 0 00-16.3 3.1 43.63 43.63 0 00-13.2 8.6 44.13 44.13 0 00-8.9 13A39.1 39.1 0 001 308zm239.3-54.9h-120v19.9h40.1v160.1h39.8V287.4h40.1v-19.9zm61 180h38.2a38.19 38.19 0 0015.4-3.1 42.32 42.32 0 0013-8.9 44.9 44.9 0 009.1-13 38.09 38.09 0 003.4-15.6V308a34.15 34.15 0 00-3.4-14.9 42.12 42.12 0 00-21.6-22.1 35.85 35.85 0 00-15.8-3.6h-38.2a35.54 35.54 0 00-15.8 3.6 41.2 41.2 0 00-13 9.1 44.13 44.13 0 00-8.9 13 36.86 36.86 0 00-3.1 14.9v98.9a36.87 36.87 0 003.4 15.6 47.71 47.71 0 008.9 13 48.42 48.42 0 0013 8.9 39.21 39.21 0 0015.4 3.1zm39.1-20.2h-40.1V287.4h40.1zm120-80.1v-60h40.1v60zm-39.9 100.3h39.8v-79.9h40.1v79.9h39.8v-55.7c0-6.9-1.1-12.5-3.4-16.8a37.28 37.28 0 00-7.4-10.6 23 23 0 00-7.2-5.5l-3.4-1.7 3.4-1.2a23.17 23.17 0 007.2-4.6 35.44 35.44 0 007.4-9.8c2.2-4.3 3.4-9.9 3.4-16.8v-17.3a45 45 0 00-2.9-16.3 33.76 33.76 0 00-7.9-12.7 38.09 38.09 0 00-12.7-8.2 43.86 43.86 0 00-16.3-2.9h-79.9zm201.6-180a34.33 34.33 0 00-14.4 3.4 47.2 47.2 0 00-22.8 21.9 35.11 35.11 0 00-3.6 15.4v139.4h39.8v-79.9h39.4v79.9a66 66 0 007.4.2h11.8c4.3 0 8.4-.1 12.2-.2h8.6V308a32.21 32.21 0 00-3.8-15.1 46.84 46.84 0 00-9.8-13 43.25 43.25 0 00-13.2-9.1 36.07 36.07 0 00-14.6-3.4zm-.9 79.7v-60h39.4v60zm179.2 20.1h20.2v60h-40.1V287.4h44.2a14.11 14.11 0 0111.8 5.5c2.9 3.5 4.3 8.6 4.3 15.1h19.7a34.15 34.15 0 00-3.4-14.9 41.2 41.2 0 00-9.1-13 44.49 44.49 0 00-13.2-9.1 35.11 35.11 0 00-15.4-3.6h-38.2a35.54 35.54 0 00-15.8 3.6 41.2 41.2 0 00-13 9.1 40.18 40.18 0 00-8.6 13.2 36.86 36.86 0 00-3.1 14.9v98.4a39.77 39.77 0 003.1 15.8 42.69 42.69 0 008.6 13 44 44 0 0012.7 8.9 40.89 40.89 0 0016.1 3.1h38.4a39.93 39.93 0 0029.3-12.3 36.43 36.43 0 008.4-13 39.85 39.85 0 003.1-15.6v-59.8h-60zm180.3.3v-20.4h-40.1v-59.8h60v-19.9h-99.8v180h99.8v-20.2h-60v-59.8z" fill="none" stroke="#000" stroke-width="2"/><path d="M1 312.2a25.14 25.14 0 004.3 13.4 115.78 115.78 0 0011 13.7c4.5 4.6 9.3 9.3 14.4 13.9 5.3 4.5 10.1 8.8 14.4 13a89.66 89.66 0 0111 12c3 3.7 4.6 7 4.6 9.8v29.3H42.5c-6.4 0-11.6-1.9-15.6-5.8-3.8-3.8-5.8-8.8-5.8-14.9H1a39.77 39.77 0 003.1 15.8 43.46 43.46 0 008.9 12.7 46.46 46.46 0 0013.2 8.9 42.59 42.59 0 0016.3 3.1h16.8a42.33 42.33 0 0016.6-3.1 40.06 40.06 0 0013-8.9 39.25 39.25 0 008.4-13 39.85 39.85 0 003.1-15.6V382a27.17 27.17 0 00-4.6-14.6 82.76 82.76 0 00-11-14.9 148.07 148.07 0 00-14.2-14.4c-5.2-4.6-9.9-9-14.4-13-4.3-4.2-8-7.9-11-11.3s-4.3-6.2-4.3-8.6v-28.3h15.8c7.7 0 13.6 1.8 17.8 5.5 4.3 3.5 6.5 8.5 6.5 14.9h19.7a35.35 35.35 0 00-3.4-15.4 34.77 34.77 0 00-8.9-12.7 38.33 38.33 0 00-13-8.6 38.66 38.66 0 00-15.8-3.4h-17a42.23 42.23 0 00-16.3 3.1 43.63 43.63 0 00-13.2 8.6 44.13 44.13 0 00-8.9 13A38 38 0 001 297.8zm239.3-55h-120v19.9h40.1v160.1h39.8v-160h40.1v-20zm61 180h38.2a38.19 38.19 0 0015.4-3.1 42.32 42.32 0 0013-8.9 44.9 44.9 0 009.1-13 38.09 38.09 0 003.4-15.6v-98.9a34.15 34.15 0 00-3.4-14.9 42.12 42.12 0 00-21.6-22.1 35.85 35.85 0 00-15.8-3.6h-38.2a35.54 35.54 0 00-15.8 3.6 41.2 41.2 0 00-13 9.1 44.13 44.13 0 00-8.9 13 36.86 36.86 0 00-3.1 14.9v98.9a36.87 36.87 0 003.4 15.6 47.71 47.71 0 008.9 13 48.42 48.42 0 0013 8.9 37.51 37.51 0 0015.4 3.1zm39.1-20.1h-40.1V277.2h40.1zm120-80.2v-60h40.1v60zm-39.9 100.3h39.8v-79.9h40.1v79.9h39.8v-55.7c0-6.9-1.1-12.5-3.4-16.8a37.28 37.28 0 00-7.4-10.6 23 23 0 00-7.2-5.5l-3.4-1.7 3.4-1.2a23.17 23.17 0 007.2-4.6 35.44 35.44 0 007.4-9.8c2.2-4.3 3.4-9.9 3.4-16.8v-17.3a45 45 0 00-2.9-16.3 33.76 33.76 0 00-7.9-12.7 38.09 38.09 0 00-12.7-8.2 43.86 43.86 0 00-16.3-2.9h-79.9zm201.6-180a34.33 34.33 0 00-14.4 3.4 47.2 47.2 0 00-22.8 21.9 35.11 35.11 0 00-3.6 15.4v139.4h39.8v-79.9h39.4v79.9a66 66 0 007.4.2h11.8c4.3 0 8.4-.1 12.2-.2h8.6V297.8a32.21 32.21 0 00-3.8-15.1 46.84 46.84 0 00-9.8-13 43.25 43.25 0 00-13.2-9.1 36.07 36.07 0 00-14.6-3.4zm-.9 79.7v-60h39.4v60zm179.2 20.2h20.2v60h-40.1V277.2h44.2a14.11 14.11 0 0111.8 5.5c2.9 3.5 4.3 8.6 4.3 15.1h19.7a34.15 34.15 0 00-3.4-14.9 41.2 41.2 0 00-9.1-13 44.49 44.49 0 00-13.2-9.1 35.11 35.11 0 00-15.4-3.6h-38.2a35.54 35.54 0 00-15.8 3.6 41.2 41.2 0 00-13 9.1 40.18 40.18 0 00-8.6 13.2 36.86 36.86 0 00-3.1 14.9v98.4a39.77 39.77 0 003.1 15.8 42.69 42.69 0 008.6 13 44 44 0 0012.7 8.9 40.89 40.89 0 0016.1 3.1h38.4a39.93 39.93 0 0029.3-12.3 36.43 36.43 0 008.4-13 39.85 39.85 0 003.1-15.6v-59.8h-60zm180.3.2v-20.4h-40.1v-59.8h60v-19.9h-99.8v180h99.8V417h-60v-59.8z" fill="#f5c32c"/><path d="M1 312.2a25.14 25.14 0 004.3 13.4 115.78 115.78 0 0011 13.7c4.5 4.6 9.3 9.3 14.4 13.9 5.3 4.5 10.1 8.8 14.4 13a89.66 89.66 0 0111 12c3 3.7 4.6 7 4.6 9.8v29.3H42.5c-6.4 0-11.6-1.9-15.6-5.8-3.8-3.8-5.8-8.8-5.8-14.9H1a39.77 39.77 0 003.1 15.8 43.46 43.46 0 008.9 12.7 46.46 46.46 0 0013.2 8.9 42.59 42.59 0 0016.3 3.1h16.8a42.33 42.33 0 0016.6-3.1 40.06 40.06 0 0013-8.9 39.25 39.25 0 008.4-13 39.85 39.85 0 003.1-15.6V382a27.17 27.17 0 00-4.6-14.6 82.76 82.76 0 00-11-14.9 148.07 148.07 0 00-14.2-14.4c-5.2-4.6-9.9-9-14.4-13-4.3-4.2-8-7.9-11-11.3s-4.3-6.2-4.3-8.6v-28.3h15.8c7.7 0 13.6 1.8 17.8 5.5 4.3 3.5 6.5 8.5 6.5 14.9h19.7a35.35 35.35 0 00-3.4-15.4 34.77 34.77 0 00-8.9-12.7 38.33 38.33 0 00-13-8.6 38.66 38.66 0 00-15.8-3.4h-17a42.23 42.23 0 00-16.3 3.1 43.63 43.63 0 00-13.2 8.6 44.13 44.13 0 00-8.9 13A38 38 0 001 297.8zm239.3-55h-120v19.9h40.1v160.1h39.8v-160h40.1v-20zm61 180h38.2a38.19 38.19 0 0015.4-3.1 42.32 42.32 0 0013-8.9 44.9 44.9 0 009.1-13 38.09 38.09 0 003.4-15.6v-98.9a34.15 34.15 0 00-3.4-14.9 42.12 42.12 0 00-21.6-22.1 35.85 35.85 0 00-15.8-3.6h-38.2a35.54 35.54 0 00-15.8 3.6 41.2 41.2 0 00-13 9.1 44.13 44.13 0 00-8.9 13 36.86 36.86 0 00-3.1 14.9v98.9a36.87 36.87 0 003.4 15.6 47.71 47.71 0 008.9 13 48.42 48.42 0 0013 8.9 37.51 37.51 0 0015.4 3.1zm39.1-20.1h-40.1V277.2h40.1zm120-80.2v-60h40.1v60zm-39.9 100.3h39.8v-79.9h40.1v79.9h39.8v-55.7c0-6.9-1.1-12.5-3.4-16.8a37.28 37.28 0 00-7.4-10.6 23 23 0 00-7.2-5.5l-3.4-1.7 3.4-1.2a23.17 23.17 0 007.2-4.6 35.44 35.44 0 007.4-9.8c2.2-4.3 3.4-9.9 3.4-16.8v-17.3a45 45 0 00-2.9-16.3 33.76 33.76 0 00-7.9-12.7 38.09 38.09 0 00-12.7-8.2 43.86 43.86 0 00-16.3-2.9h-79.9zm201.6-180a34.33 34.33 0 00-14.4 3.4 47.2 47.2 0 00-22.8 21.9 35.11 35.11 0 00-3.6 15.4v139.4h39.8v-79.9h39.4v79.9a66 66 0 007.4.2h11.8c4.3 0 8.4-.1 12.2-.2h8.6V297.8a32.21 32.21 0 00-3.8-15.1 46.84 46.84 0 00-9.8-13 43.25 43.25 0 00-13.2-9.1 36.07 36.07 0 00-14.6-3.4zm-.9 79.7v-60h39.4v60zm179.2 20.2h20.2v60h-40.1V277.2h44.2a14.11 14.11 0 0111.8 5.5c2.9 3.5 4.3 8.6 4.3 15.1h19.7a34.15 34.15 0 00-3.4-14.9 41.2 41.2 0 00-9.1-13 44.49 44.49 0 00-13.2-9.1 35.11 35.11 0 00-15.4-3.6h-38.2a35.54 35.54 0 00-15.8 3.6 41.2 41.2 0 00-13 9.1 40.18 40.18 0 00-8.6 13.2 36.86 36.86 0 00-3.1 14.9v98.4a39.77 39.77 0 003.1 15.8 42.69 42.69 0 008.6 13 44 44 0 0012.7 8.9 40.89 40.89 0 0016.1 3.1h38.4a39.93 39.93 0 0029.3-12.3 36.43 36.43 0 008.4-13 39.85 39.85 0 003.1-15.6v-59.8h-60zm180.3.2v-20.4h-40.1v-59.8h60v-19.9h-99.8v180h99.8V417h-60v-59.8z" fill="none" stroke="#000" stroke-width="2"/><path d="M1 302a25.14 25.14 0 004.3 13.4 115.78 115.78 0 0011 13.7c4.5 4.6 9.3 9.3 14.4 13.9 5.3 4.5 10.1 8.8 14.4 13a89.66 89.66 0 0111 12c3 3.7 4.6 7 4.6 9.8v29.3H42.5c-6.4 0-11.6-1.9-15.6-5.8-3.8-3.8-5.8-8.8-5.8-14.9H1a39.77 39.77 0 003.1 15.8 43.46 43.46 0 008.9 12.7 46.46 46.46 0 0013.2 8.9 42.59 42.59 0 0016.3 3.1h16.8a42.33 42.33 0 0016.6-3.1 40.06 40.06 0 0013-8.9 39.25 39.25 0 008.4-13 39.85 39.85 0 003.1-15.6v-14.6a27.17 27.17 0 00-4.6-14.6 82.76 82.76 0 00-11-14.9 148.07 148.07 0 00-14.2-14.4c-5.2-4.6-9.9-9-14.4-13-4.3-4.2-8-7.9-11-11.3s-4.3-6.2-4.3-8.6v-28.3h15.8c7.7 0 13.6 1.8 17.8 5.5 4.3 3.5 6.5 8.5 6.5 14.9h19.7a35.35 35.35 0 00-3.4-15.4 34.77 34.77 0 00-8.9-12.7 38.33 38.33 0 00-13-8.6 38.66 38.66 0 00-15.8-3.4h-17a42.23 42.23 0 00-16.3 3.1 43.63 43.63 0 00-13.2 8.6 44.13 44.13 0 00-8.9 13 38.45 38.45 0 00-3.2 16zm239.3-55h-120v19.9h40.1V427h39.8V266.9h40.1V247zm61 180h38.2a38.19 38.19 0 0015.4-3.1 42.32 42.32 0 0013-8.9 44.9 44.9 0 009.1-13 38.09 38.09 0 003.4-15.6v-98.9a34.15 34.15 0 00-3.4-14.9 42.12 42.12 0 00-21.6-22.1 35.85 35.85 0 00-15.8-3.6h-38.2a35.54 35.54 0 00-15.8 3.6 41.2 41.2 0 00-13 9.1 44.13 44.13 0 00-8.9 13 36.86 36.86 0 00-3.1 14.9v98.9A36.87 36.87 0 00264 402a47.71 47.71 0 008.9 13 48.42 48.42 0 0013 8.9 37.51 37.51 0 0015.4 3.1zm39.1-20.2h-40.1V266.9h40.1zm120-80.1v-60h40.1v60zM420.5 427h39.8v-79.9h40.1V427h39.8v-55.7c0-6.9-1.1-12.5-3.4-16.8a37.28 37.28 0 00-7.4-10.6 23 23 0 00-7.2-5.5l-3.4-1.7 3.4-1.2a23.17 23.17 0 007.2-4.6 35.44 35.44 0 007.4-9.8c2.2-4.3 3.4-9.9 3.4-16.8V287a45 45 0 00-2.9-16.3 33.76 33.76 0 00-7.9-12.7 38.09 38.09 0 00-12.7-8.2 43.86 43.86 0 00-16.3-2.9h-79.9zm201.6-180a34.33 34.33 0 00-14.4 3.4 47.2 47.2 0 00-22.8 21.9 35.11 35.11 0 00-3.6 15.4V427h39.8v-79.9h39.4V427a66 66 0 007.4.2h11.8c4.3 0 8.4-.1 12.2-.2h8.6V287.6a32.21 32.21 0 00-3.8-15.1 46.84 46.84 0 00-9.8-13 43.25 43.25 0 00-13.2-9.1 36.07 36.07 0 00-14.6-3.4zm-.9 79.7v-60h39.4v60zm179.2 20.1h20.2v60h-40.1V266.9h44.2a14.11 14.11 0 0111.8 5.5c2.9 3.5 4.3 8.6 4.3 15.1h19.7a34.15 34.15 0 00-3.4-14.9 41.2 41.2 0 00-9.1-13 44.49 44.49 0 00-13.2-9.1 35.11 35.11 0 00-15.4-3.6h-38.2a35.54 35.54 0 00-15.8 3.6 41.2 41.2 0 00-13 9.1 40.18 40.18 0 00-8.6 13.2 36.86 36.86 0 00-3.1 14.9v98.4a39.77 39.77 0 003.1 15.8 42.69 42.69 0 008.6 13 44 44 0 0012.7 8.9 40.89 40.89 0 0016.1 3.1h38.4a39.93 39.93 0 0029.3-12.3 36.43 36.43 0 008.4-13 39.85 39.85 0 003.1-15.6v-59.8h-60zm180.3.3v-20.4h-40.1v-59.8h60V247h-99.8v180h99.8v-20.2h-60V347h40.1z" fill="none" stroke="#000" stroke-width="2"/><path d="M307.4 221V117L417 221.4l.1.1h10.3v-181h-21.2V144L296.7 40.6l-.1-.1h-10.1v181h20.9zm239.5-79.4h.5v-21.2h-40.1v-59h60V40.5H466.5v181h40.8v-79.9zM707.3 41v-.5h-121v20.9h40.1v160.1h40.8V61.4h40.1V41z" fill="#f5c32c" stroke="#000"/><path d="M307.4 211V107L417 211.4l.1.1h10.3v-181h-21.2V134L296.7 30.6l-.1-.1h-10.1v181h20.9zm239.5-79.4h.5v-21.2h-40.1v-59h60V30.5H466.5v181h40.8v-79.9zM707.3 31v-.5h-121v20.9h40.1v160.1h40.8V51.4h40.1V31z" fill="#f5c32c" stroke="#000"/><path d="M307.4 201V97L417 201.4l.1.1h10.3v-181h-21.2V124L296.7 20.6l-.1-.1h-10.1v181h20.9zm239.5-79.4h.5v-21.2h-40.1v-59h60V20.5H466.5v181h40.8v-79.9zM707.3 21v-.5h-121v20.9h40.1v160.1h40.8V41.4h40.1V21z" fill="#f5c32c" stroke="#000"/><path d="M307.4 191V87L417 191.4l.1.1h10.3v-181h-21.2V114L296.7 10.6l-.1-.1h-10.1v181h20.9zm239.5-79.4h.5V90.4h-40.1v-59h60V10.5H466.5v181h40.8v-79.9zM707.3 11v-.5h-121v20.9h40.1v160.1h40.8V31.4h40.1V11z" fill="#f5c32c" stroke="#000"/><path d="M307.4 181V77L417 181.4l.1.1h10.3V.5h-21.2V104L296.7.6l-.1-.1h-10.1v181h20.9zm239.5-79.4h.5V80.4h-40.1v-59h60V.5H466.5v181h40.8v-79.9zM707.3 1V.5h-121v20.9h40.1v160.1h40.8V21.4h40.1V1z" fill="#231f20" stroke="#000"/><path d="M368.4 259.6a41.2 41.2 0 00-13-9.1 35.85 35.85 0 00-15.8-3.6h-38.2a35.54 35.54 0 00-15.8 3.6 41.2 41.2 0 00-13 9.1 44.13 44.13 0 00-8.9 13 36.86 36.86 0 00-3.1 14.9v98.9A36.87 36.87 0 00264 402a47.71 47.71 0 008.9 13 48.42 48.42 0 0013 8.9 37.51 37.51 0 0015.4 3.1h38.2a38.19 38.19 0 0015.4-3.1 42.32 42.32 0 0013-8.9 44.9 44.9 0 009.1-13 38.09 38.09 0 003.4-15.6v-98.9a34.15 34.15 0 00-3.4-14.9 41.51 41.51 0 00-8.6-13zM120.3 266.9h40.1V427h39.8V266.9h40.1V247h-120v19.9zM56.7 266.6c7.7 0 13.6 1.8 17.8 5.5 4.3 3.5 6.5 8.5 6.5 14.9h19.7a35.35 35.35 0 00-3.4-15.4 34.77 34.77 0 00-8.9-12.7 38.33 38.33 0 00-13-8.6 38.66 38.66 0 00-15.8-3.4h-17a42.23 42.23 0 00-16.3 3.1 43.63 43.63 0 00-13.2 8.6 44.13 44.13 0 00-8.9 13 38.45 38.45 0 00-3.2 16V302a25.14 25.14 0 004.3 13.4 115.78 115.78 0 0011 13.7c4.5 4.6 9.3 9.3 14.4 13.9 5.3 4.5 10.1 8.8 14.4 13a89.66 89.66 0 0111 12c3 3.7 4.6 7 4.6 9.8v29.3H42.5c-6.4 0-11.6-1.9-15.6-5.8-3.8-3.8-5.8-8.8-5.8-14.9H1a39.77 39.77 0 003.1 15.8 43.46 43.46 0 008.9 12.7 46.46 46.46 0 0013.2 8.9 42.59 42.59 0 0016.3 3.1h16.8a42.33 42.33 0 0016.6-3.1 40.06 40.06 0 0013-8.9 39.25 39.25 0 008.4-13 39.85 39.85 0 003.1-15.6v-14.6a27.17 27.17 0 00-4.6-14.6 82.76 82.76 0 00-11-14.9 148.07 148.07 0 00-14.2-14.4c-5.2-4.6-9.9-9-14.4-13-4.3-4.2-8-7.9-11-11.3s-4.3-6.2-4.3-8.6v-28.3zM686.9 259.5a43.25 43.25 0 00-13.2-9.1 36.07 36.07 0 00-14.6-3.4h-37a34.33 34.33 0 00-14.4 3.4 47.2 47.2 0 00-22.8 21.9 35.11 35.11 0 00-3.6 15.4V427h39.8v-79.9h39.4V427a66 66 0 007.4.2h11.8c4.3 0 8.4-.1 12.2-.2h8.6V287.6a32.21 32.21 0 00-3.8-15.1 46.84 46.84 0 00-9.8-13zm-26.3 67.2h-39.4v-60h39.4zM529.4 258a38.09 38.09 0 00-12.7-8.2 43.86 43.86 0 00-16.3-2.9h-79.9V427h39.8v-79.9h40.1V427h39.8v-55.7c0-6.9-1.1-12.5-3.4-16.8a37.28 37.28 0 00-7.4-10.6 23 23 0 00-7.2-5.5l-3.4-1.7 3.4-1.2a23.17 23.17 0 007.2-4.6 35.44 35.44 0 007.4-9.8c2.2-4.3 3.4-9.9 3.4-16.8V287a45 45 0 00-2.9-16.3 33.76 33.76 0 00-7.9-12.7zm-28.9 68.7h-40.1v-60h40.1zM824.7 266.9a14.11 14.11 0 0111.8 5.5c2.9 3.5 4.3 8.6 4.3 15.1h19.7a34.15 34.15 0 00-3.4-14.9 41.2 41.2 0 00-9.1-13 44.49 44.49 0 00-13.2-9.1 35.11 35.11 0 00-15.4-3.6h-38.2a35.54 35.54 0 00-15.8 3.6 41.2 41.2 0 00-13 9.1 40.18 40.18 0 00-8.6 13.2 36.86 36.86 0 00-3.1 14.9v98.4a39.77 39.77 0 003.1 15.8 42.69 42.69 0 008.6 13 44 44 0 0012.7 8.9 40.89 40.89 0 0016.1 3.1h38.4a39.93 39.93 0 0029.3-12.3 36.43 36.43 0 008.4-13 39.85 39.85 0 003.1-15.6v-59.8h-60v20.6h20.2v60h-40.1V266.9zM1000.6 266.9V247h-99.8v180h99.8v-20.2h-60V347h40.1v-20.3h-40.1v-59.8h60z"/><ellipse cx="305.5" cy="298" rx="4.5" ry="10" fill="#f5c32c"/><ellipse cx="334.5" cy="298" rx="4.5" ry="10" fill="#f5c32c"/><path d="M359 320c0 21.5-17.2 39-38.5 39S282 341.5 282 320" fill="none" stroke="#f5c32c" stroke-width="4"/></svg>