<svg xmlns="http://www.w3.org/2000/svg" xmlns:xlink="http://www.w3.org/1999/xlink" viewBox="0 0 193.19 55.01"><defs><linearGradient id="a" x1="-202.44" y1="413.89" x2="-202.17" y2="413.24" gradientTransform="matrix(40, 0, 0, -37.18, 8124.42, 15406.55)" gradientUnits="userSpaceOnUse"><stop offset="0" stop-color="#ed55eb"/><stop offset="0.37" stop-color="#17e0d8"/><stop offset="0.6" stop-color="#00ffc2"/><stop offset="1" stop-color="#ffec06"/></linearGradient></defs><path d="M32.5.5A27.2,27.2,0,0,1,54.22,11.25h.5c5.43,1,9.78,6.55,9.78,12.91a12,12,0,0,1-5.76,10.47,27.26,27.26,0,0,1-52.48,0A12,12,0,0,1,.5,24.16c0-6.36,4.36-11.89,9.79-12.92h.49A27.22,27.22,0,0,1,32.5.5Z" style="fill:#171717;stroke:#fff;fill-rule:evenodd"/><path d="M22.5,12.55a22.22,22.22,0,0,1,20,0,18.21,18.21,0,0,1,10,16.26V33.7a12.85,12.85,0,0,1-10,12.53,45.3,45.3,0,0,1-20,0,12.85,12.85,0,0,1-10-12.53V28.81A18.23,18.23,0,0,1,22.5,12.55Z" style="fill-rule:evenodd;fill:url(#a)"/><path d="M88.37,40a13.24,13.24,0,0,1-5.35-1,7,7,0,0,1-3.14-2.48,5.86,5.86,0,0,1-1-3.34,6.39,6.39,0,0,1,0-.73c0-.13,0-.21,0-.24h3.83v.44a3.43,3.43,0,0,0,1.63,3.1,7.7,7.7,0,0,0,4.22,1,7,7,0,0,0,3.72-.9,2.82,2.82,0,0,0,1.47-2.53A2.78,2.78,0,0,0,93,31.34a5.91,5.91,0,0,0-2.07-1.27,32.2,32.2,0,0,0-3.35-1,33.36,33.36,0,0,1-4.15-1.32,7.13,7.13,0,0,1-2.73-2,4.93,4.93,0,0,1-1.12-3.37A5.6,5.6,0,0,1,82,17.61a13.14,13.14,0,0,1,11.29-.92A6.77,6.77,0,0,1,96.23,19a5.52,5.52,0,0,1,1,3.19l0,.84H93.39v-.4a3.22,3.22,0,0,0-1.21-2.55,6.06,6.06,0,0,0-3.9-1,5.55,5.55,0,0,0-3.7.95,2.83,2.83,0,0,0-1,2.17,2.14,2.14,0,0,0,.74,1.68,5.76,5.76,0,0,0,1.85,1.05,30.21,30.21,0,0,0,3.08.88,38.84,38.84,0,0,1,4.45,1.39,7.44,7.44,0,0,1,2.92,2.07,5.33,5.33,0,0,1,1.21,3.67,6.08,6.08,0,0,1-2.57,5.35A11.87,11.87,0,0,1,88.37,40Zm14.08-23.67h2.9l.48,3.12h.27a7.41,7.41,0,0,1,3-2.73,9.36,9.36,0,0,1,4.16-.92,8.19,8.19,0,0,1,6.78,3q2.37,2.94,2.37,9.15c0,4.05-.78,7.07-2.35,9.08a7.73,7.73,0,0,1-6.45,3,10.5,10.5,0,0,1-4.18-.75,6.73,6.73,0,0,1-2.86-2.42h-.26V47.11h-3.87Zm9.86,20.46a6.62,6.62,0,0,0,3.56-.84,4.89,4.89,0,0,0,1.94-2.73,17.19,17.19,0,0,0,.61-5.15v-.17a17.82,17.82,0,0,0-.61-5.24,5,5,0,0,0-2-2.79,6.48,6.48,0,0,0-3.54-.86,5,5,0,0,0-4.54,2.24c-1,1.5-1.45,3.71-1.45,6.65v.17c0,2.87.48,5,1.43,6.51a5,5,0,0,0,4.55,2.21ZM133.21,40a10.18,10.18,0,0,1-5.33-1.41q-2.32-1.41-2.33-5.1a6,6,0,0,1,4-6.09q4-1.65,11.44-1.65V23.22a4,4,0,0,0-1.14-3.1Q138.65,19,135.67,19a6.15,6.15,0,0,0-4,1.06,3.34,3.34,0,0,0-1.21,2.6v.53h-3.74a8,8,0,0,1,0-1,5.37,5.37,0,0,1,2.55-4.76A12.25,12.25,0,0,1,136,15.83c2.88,0,5.06.6,6.56,1.8a6.17,6.17,0,0,1,2.24,5.1V35.27a1.48,1.48,0,0,0,.44,1.16,1.64,1.64,0,0,0,1.1.38h1.76v2.51a7.29,7.29,0,0,1-3,.52,3.61,3.61,0,0,1-2.51-.9,4.46,4.46,0,0,1-1.36-2.4H141a8.08,8.08,0,0,1-3.23,2.56,11,11,0,0,1-4.52.93Zm1-3.21a7.91,7.91,0,0,0,3.25-.7A6.15,6.15,0,0,0,140,34a5.7,5.7,0,0,0,1-3.37V29a30.47,30.47,0,0,0-8.51.9c-1.9.6-2.84,1.74-2.84,3.41A3.06,3.06,0,0,0,130.76,36a6.08,6.08,0,0,0,3.46.82Zm26,3.21q-5.28,0-7.75-2.93T150,27.93q0-6.21,2.49-9.15c1.65-2,4.23-3,7.72-3,3.17,0,5.48.76,6.95,2.29s2.2,3.79,2.2,6.82h-4a7.16,7.16,0,0,0-1.12-4.51c-.75-.93-2.11-1.39-4.07-1.39a5.38,5.38,0,0,0-4.71,2.09q-1.5,2.09-1.5,6.8v.17q0,4.66,1.45,6.69t4.75,2c1.94,0,3.32-.49,4.16-1.47a6.72,6.72,0,0,0,1.26-4.42h3.74a9.55,9.55,0,0,1-2.25,6.53Q164.85,40,160.18,40Zm23,0q-5.59,0-8.32-3t-2.72-9.15q0-6.21,2.72-9.15t8.32-3q5,0,7.5,2.66c1.66,1.77,2.48,4.63,2.49,8.56V29h-17q.22,4,1.91,5.92a6.55,6.55,0,0,0,5.13,1.92,7.39,7.39,0,0,0,4.49-1.28,4.56,4.56,0,0,0,1.71-3.92h3.79a7.43,7.43,0,0,1-2.8,6.23A11.36,11.36,0,0,1,183.19,40Zm5.94-14.26q0-6.73-5.94-6.73a6.9,6.9,0,0,0-4.95,1.58,8,8,0,0,0-2,5.15Z" style="fill:#171717"/></svg>