<svg xmlns="http://www.w3.org/2000/svg" viewBox="0 0 52 85"><path d="M49.4 10.3L46 13.6 35.2 24.4c.7-.1 1.5-.2 2.3-.2 1.9 0 3.5.4 4.8 1 0 0 .5.1 1.6.9.5.3.9.7 1.3 1 1.1 1 2.5 2.4 4.2 4.5V10.3zm-5.1 19.1c-.6-.8-2.8-3-6.8-3-3.5 0-5.6 1.4-6.6 2.2l-.2.2v18.3l.1.1 6.8 6.8 2.3-2.3-1-1c-.7-1-1.5-2.7-1-4.4l3.5 3.5c.7-1 1.3-2 1.7-3.1L40 43.6c.6-.6 1.1-1.2 1.5-1.8l2.5 2.5c.2-.8.3-1.6.3-2.5v-2.4l-.9-.9c.6-1.4.9-2.9.9-4.4v-4.7zm-7.8 28.9l-4.9 4.9c-2.5 2.5-4.1 5.7-4.5 9.2l7.4-7.4c1.3-1.3 2.1-3.1 2.1-5v-1.7zm0 8l-4.9 4.9c-2.5 2.5-4.1 5.7-4.5 9.2l7.4-7.4c1.3-1.3 2.1-3.1 2.1-5v-1.7zm-10.6 1.6c.9-2.3 2.3-4.4 4.1-6.2l2.2-2.2-1.7-1.7c-1.2 1.2-2.8 1.9-4.5 1.9-1.7 0-3.3-.7-4.5-1.9l-1.7 1.7 2.2 2.2c1.5 1.8 2.9 3.9 3.9 6.2-.1 0-.1 0 0 0zm-1.2 4.5c-.4-3.5-2-6.7-4.5-9.2l-4.9-4.9V60c0 1.9.7 3.6 2.1 5l7.3 7.4zm0 8c-.4-3.5-2-6.7-4.5-9.2l-4.9-4.9V68c0 1.9.7 3.6 2.1 5l7.3 7.4zm-3.8-33.2l.1-18.3-.2-.2c-.9-.8-3-2.2-6.6-2.2-4 0-6.2 2.2-6.8 3V34c0 1.5.3 3 .9 4.4l-.9.9v2.4c0 .8.2 1.7.3 2.5l2.5-2.5 1.5 1.8-3.2 3.2c.4 1.1 1 2.1 1.7 3.1l3.5-3.5c.5 1.7-.3 3.4-1 4.4l-1 1L14 54l6.9-6.8zM6.6 27.1c.4-.3.8-.7 1.3-1 1-.7 1.6-.9 1.6-.9 1.3-.6 2.9-1 4.8-1 .8 0 1.6.1 2.3.2L5.7 13.6l-3.3-3.3v21.4c1.6-2.2 3.1-3.6 4.2-4.6zm24.9 28.5c1.3 1.3 3.3 1.3 4.5 0l-9-9.1v2.4c0 1.4.6 2.7 1.5 3.7l3 3zm-8.6.5c.8.8 1.8 1.2 3 1.2 1.1 0 2.2-.4 3-1.2L27 54.2c-.4-.4-.7-.8-1-1.3v-.1.1c-.3.5-.6.9-1 1.3l-2.1 1.9zm1.8-7.2v-2.3l-9 9.1c1.3 1.3 3.3 1.3 4.5 0l3-3c.9-1.1 1.5-2.4 1.5-3.8zM7.8 12.5l15.4 15.4v16.6s1.8.2 2.6.2 2.6-.2 2.6-.2V27.9l15.4-15.4C40 6.2 33.2 2.3 25.8 2.3s-14.2 3.9-18 10.2zm43.9-7.8v42.5c0 7.3-2.8 14.2-7.9 19.5l-7.3 7.5L25.9 85 15.2 74.1l-7.3-7.5C2.8 61.4 0 54.5 0 47.2V4.7l6.2 6.2C10.4 4.1 17.8 0 25.9 0c8 0 15.4 4.1 19.7 10.8l6.1-6.1zM39.8 31.9c-.6-.4-1.4-.7-2.3-.7-.9 0-1.7.2-2.3.7-.8.6-.8 1.8 0 2.4.6.4 1.4.7 2.3.7.9 0 1.7-.2 2.3-.7.8-.6.8-1.8 0-2.4zm-23.3 2.4c-.6.4-1.4.7-2.3.7-.9 0-1.7-.2-2.3-.7-.8-.6-.8-1.8 0-2.4.6-.4 1.4-.7 2.3-.7.9 0 1.7.2 2.3.7.8.6.8 1.8 0 2.4z" fill-rule="evenodd" clip-rule="evenodd"/></svg>