<svg xmlns="http://www.w3.org/2000/svg" viewBox="0 0 273.01 364.46"><path d="M131.62.93,97.93,20.38a7,7,0,0,0-3.48,6v38.9a7,7,0,0,0,3.48,6l33.69,19.45a7,7,0,0,0,7,0l33.69-19.45a7,7,0,0,0,3.49-6V26.42a7,7,0,0,0-3.49-6L138.59.93A7,7,0,0,0,131.62.93Z" style="fill:#706f6f"/><path d="M41.45,165.79l25.48,44.14a4.91,4.91,0,0,1-4.25,7.36h-51a4.92,4.92,0,0,1-4.25-7.36L33,165.79a4.91,4.91,0,0,1,8.45,0Z" style="fill:#9d9d9c"/><rect x="208.46" y="43.1" width="64.55" height="64.55" rx="5.18" style="fill:#575756"/><path d="M33.73,67.14l-28,20.34a5.9,5.9,0,0,0-2.15,6.6L14.27,127a5.91,5.91,0,0,0,5.62,4.08h34.6A5.9,5.9,0,0,0,60.1,127l10.69-32.9a5.88,5.88,0,0,0-2.14-6.6l-28-20.34A5.92,5.92,0,0,0,33.73,67.14Z" style="fill:#878787"/><circle cx="135.11" cy="164.47" r="49.22" transform="matrix(0.08, -1, 1, 0.08, -39.94, 285.55)" style="fill:#64c2c8"/><path d="M266.94,131.81H235.73a3.24,3.24,0,0,0-3.21,3.18,97.57,97.57,0,0,1-97.41,94.29C61.7,229.28,1.77,288.14,0,361.14a3.28,3.28,0,0,0,3.24,3.32H34.48a3.25,3.25,0,0,0,3.22-3.17,97.38,97.38,0,0,1,38.86-74.68,3.27,3.27,0,0,1,4.58.64,3.22,3.22,0,0,1,.66,2v72A3.24,3.24,0,0,0,85,364.45h46.87A56.51,56.51,0,0,0,188.42,308V259a4.66,4.66,0,0,1,2.75-4.23,135.35,135.35,0,0,0,79-119.62,3.27,3.27,0,0,0-3.21-3.33ZM135.11,305.22a19,19,0,1,1,18.95-19.05v.05A19,19,0,0,1,135.11,305.22Z" style="fill:#64c2c8"/></svg>
