<svg id="Ebene_1" data-name="Ebene 1" xmlns="http://www.w3.org/2000/svg" viewBox="0 0 1389 484">
    <defs>
        <style>
            .cls-1 {
                fill: #706f6f;
            }
            .cls-2 {
                fill: #9d9d9c;
            }
            .cls-3 {
                fill: #575756;
            }
            .cls-4 {
                fill: #878787;
            }
            .cls-5 {
                fill: #64c2c8;
            }
            .cls-6 {
                fill: #4a4a49;
            }
        </style>
    </defs><path class="cls-1" d="M221.62,54.79,187.93,74.24a7,7,0,0,0-3.48,6v38.9a7,7,0,0,0,3.48,6l33.69,19.45a7,7,0,0,0,7,0l33.69-19.45a7,7,0,0,0,3.49-6V80.28a7,7,0,0,0-3.49-6L228.59,54.79A7,7,0,0,0,221.62,54.79Z"/><path class="cls-2" d="M131.45,219.65l25.48,44.14a4.91,4.91,0,0,1-4.25,7.36h-51a4.91,4.91,0,0,1-4.25-7.36L123,219.65A4.91,4.91,0,0,1,131.45,219.65Z"/><rect class="cls-3" x="298.46" y="96.96" width="64.55" height="64.55" rx="5.18"/><path class="cls-4" d="M123.73,121l-28,20.34a5.9,5.9,0,0,0-2.15,6.6l10.69,32.9a5.91,5.91,0,0,0,5.62,4.08h34.6a5.91,5.91,0,0,0,5.61-4.08l10.69-32.9a5.89,5.89,0,0,0-2.14-6.6l-28-20.34A5.91,5.91,0,0,0,123.73,121Z"/><circle class="cls-5" cx="225.11" cy="218.33" r="49.22"/><path class="cls-5" d="M356.94,185.67H325.73a3.24,3.24,0,0,0-3.21,3.18,97.58,97.58,0,0,1-97.41,94.29C151.7,283.14,91.77,342,90,415a3.28,3.28,0,0,0,3.27,3.32h31.21a3.25,3.25,0,0,0,3.22-3.17,97.39,97.39,0,0,1,38.86-74.68,3.27,3.27,0,0,1,5.24,2.6v72a3.24,3.24,0,0,0,3.24,3.24h46.87a56.51,56.51,0,0,0,56.51-56.5V312.85a4.65,4.65,0,0,1,2.75-4.23,135.33,135.33,0,0,0,79-119.62A3.27,3.27,0,0,0,356.94,185.67ZM225.11,359.08a19,19,0,1,1,18.95-19A19,19,0,0,1,225.11,359.08Z"/><path class="cls-6" d="M513.5,225.25a85.53,85.53,0,0,0-13.19-12,20.35,20.35,0,0,0-11.69-4,13.09,13.09,0,0,0-8.48,2.73,9.26,9.26,0,0,0-3.39,7.63,11,11,0,0,0,2.35,6.59,22.76,22.76,0,0,0,6.69,5.85l24.32,16.21A80.72,80.72,0,0,1,522,257.86a38.59,38.59,0,0,1,7.82,11.31,35.51,35.51,0,0,1,2.92,14.89q0,12.06-5.46,21a36.15,36.15,0,0,1-14.8,13.66,46.25,46.25,0,0,1-21.2,4.71A43.79,43.79,0,0,1,467.89,317q-10.56-6.51-21.48-18.76l18.66-16.77a60.61,60.61,0,0,0,13,12.35q6.58,4.41,13,4.42,7,0,10.65-3.11t3.67-9.71a13,13,0,0,0-2.91-7.82,32.25,32.25,0,0,0-7.64-7.06l-24.5-16.4a59.69,59.69,0,0,1-15.18-14.42q-5.55-7.81-5.55-19.13a35.78,35.78,0,0,1,5.09-19.31,34.41,34.41,0,0,1,14-12.73A43.51,43.51,0,0,1,488.62,184a40.51,40.51,0,0,1,22.24,6.12q9.6,6.15,21.29,18.76Z"/><path class="cls-6" d="M611.4,323.44A67.47,67.47,0,0,1,576.53,314a70.61,70.61,0,0,1-25.45-25.44,69.29,69.29,0,0,1,0-69.73,70.61,70.61,0,0,1,25.45-25.44,69.17,69.17,0,0,1,69.73,0,70.51,70.51,0,0,1,25.44,25.44,69.17,69.17,0,0,1,0,69.73A70.51,70.51,0,0,1,646.26,314,67.46,67.46,0,0,1,611.4,323.44Zm1-26a39.87,39.87,0,0,0,19-5.35,44.5,44.5,0,0,0,16.42-16.41,44.79,44.79,0,0,0,0-43.91,44.43,44.43,0,0,0-16.53-16.47,40.64,40.64,0,0,0-41.23.64,44.56,44.56,0,0,0-15.36,15.83,44.79,44.79,0,0,0,0,43.91A44.72,44.72,0,0,0,590.1,291.5,39.93,39.93,0,0,0,612.43,297.43Z"/><path class="cls-6" d="M762.92,297.44a40.93,40.93,0,0,0,19.22-4.72,39.57,39.57,0,0,0,14.7-13l19.79,18.47a69.5,69.5,0,0,1-53.71,25.25A67.47,67.47,0,0,1,728.05,314a70.51,70.51,0,0,1-25.44-25.44,69.23,69.23,0,0,1,0-69.73,70.51,70.51,0,0,1,25.44-25.44,69,69,0,0,1,64.83-2.55,69.1,69.1,0,0,1,23.75,18.75l-19.79,18.1a43.48,43.48,0,0,0-14.89-13,41,41,0,0,0-40.33,1.23,44.56,44.56,0,0,0-15.36,15.83,44.79,44.79,0,0,0,0,43.91,44.72,44.72,0,0,0,15.36,15.83A39.73,39.73,0,0,0,762.92,297.44Z"/><path class="cls-6" d="M837,321V230.84H863.4V321Z"/><path class="cls-6" d="M920.62,237.31h46.93v24.32H920.62v35.06h46.93V321H894.24V186.43h73.31v24.32H920.62Z"/><path class="cls-6" d="M1084.23,211.69H1052V321h-26.39V211.69h-32V186.43h90.65Z"/><path class="cls-6" d="M1171.34,263.71V321H1145V263.14l-42.39-76.71h29.77L1158,235.05l25.63-48.62h30Z"/><path class="cls-5" d="M1309.27,296.26V321h-86V299.2l42.8-47.31a76.66,76.66,0,0,0,10.7-14.52q4-7.27,4-13.55,0-6.67-4.22-10.3t-11.09-3.64a15.34,15.34,0,0,0-9,2.75,17.29,17.29,0,0,0-6,7.56,22.46,22.46,0,0,0-1.67,10.5l-25.71-2.95a38,38,0,0,1,4.71-21.59,40.45,40.45,0,0,1,15.7-15.6,48.32,48.32,0,0,1,44.76-.6,38,38,0,0,1,14.82,13.84,35.87,35.87,0,0,1,5.2,18.85,46.83,46.83,0,0,1-5,20.42,70.25,70.25,0,0,1-13,18.65l-32.79,34.55Z"/><circle class="cls-5" cx="850.21" cy="200.3" r="16.24"/><path class="cls-2" d="M503.54,386.53c0,19.37-11.64,31.2-28.72,31.2s-28.73-11.83-28.73-31.2,11.64-31.19,28.73-31.19S503.54,367.17,503.54,386.53Zm-10.73,0c0-14.54-7.16-22.49-18-22.49s-18,7.95-18,22.49S464,409,474.82,409,492.81,401.08,492.81,386.53Z"/><path class="cls-2" d="M565.71,416.39H554.78l-9.25-31.71h-.34l-9.25,31.71H525.39L511,372.19h10.75l9.17,32.64h.33l8.88-32.64h11.14l8.86,32.64h.34l9.17-32.64H580Z"/><path class="cls-2" d="M598.73,378c3.28-4.69,8.11-6.83,13.82-6.83,8.14,0,15.61,4.77,15.61,16v29.23h-9.8V389.9c0-7.85-3.26-10.65-9.18-10.65-5.28,0-10.33,4.38-10.33,12.94v24.2H589v-44.2h9.36V378Z"/><path class="cls-2" d="M691.41,393.18v23.21H680.87V393.25l-21.61-36.58h11.57l15.4,27.57,15.42-27.57H713Z"/><path class="cls-2" d="M756.46,394.3c0,14-8.51,23.1-21.84,23.1s-21.92-9.11-21.92-23.1,8.5-23.13,21.92-23.13S756.46,380.3,756.46,394.3Zm-10,0c0-9.79-4.59-15.45-11.85-15.45s-11.93,5.66-11.93,15.45,4.59,15.43,11.93,15.43S746.47,404.09,746.47,394.3Z"/><path class="cls-2" d="M796.52,410.57c-3.27,4.7-8.1,6.83-13.81,6.83-8.14,0-15.62-4.77-15.62-16V372.19h9.81v26.48c0,7.86,3.25,10.65,9.18,10.65,5.28,0,10.33-4.38,10.33-12.93v-24.2h9.8v44.2h-9.35v-5.82Z"/><path class="cls-2" d="M828.32,378.86h.33a14.35,14.35,0,0,1,13.15-7.69,16.66,16.66,0,0,1,3.63.4v9.32a32.73,32.73,0,0,0-4.45-.34c-7,0-12.21,3.25-12.21,12.76v23.08H819v-44.2h9.35Z"/><path class="cls-2" d="M900.33,356.67c17.3,0,28.94,9.91,28.94,29.86s-11.64,29.86-28.94,29.86h-23.1V356.67Zm-1.42,51.09c12.47,0,19.63-7,19.63-21.23s-7.16-21.22-19.63-21.22H887.77v42.45Z"/><path class="cls-2" d="M950.92,355.84v9.61h-9.8v-9.61Zm0,16.35v44.2h-9.8v-44.2Z"/><path class="cls-2" d="M1003.84,413.21c0,14.32-9.39,19.58-21.15,19.58-9.8,0-18-4.11-20.71-14.21l9.53-1.63c1.6,6,5.5,8.14,11.18,8.14,7.06,0,11.35-3.55,11.35-12.27v-4.27h-.34c-2.4,3.38-6.87,5.51-12.87,5.51-11.25,0-19.41-8.46-19.41-21.46s8.16-21.43,19.49-21.43c6,0,10.78,2.12,13.24,6.13h.34v-5.11h9.35Zm-9.19-20.61c0-8.19-4.54-13.7-11.59-13.7s-11.65,5.51-11.65,13.7,4.53,13.88,11.65,13.88S994.65,400.89,994.65,392.6Z"/><path class="cls-2" d="M1026.22,355.84v9.61h-9.8v-9.61Zm0,16.35v44.2h-9.8v-44.2Z"/><path class="cls-2" d="M1060.83,408.54v7.85a22.75,22.75,0,0,1-6.87,1c-8.06,0-12-2.51-12-10.77V379.21h-7.19v-7H1042V359.77h9.8v12.42h9.48v7h-9.48v26.1c0,3.32,1.35,3.92,4.33,3.92A14.61,14.61,0,0,0,1060.83,408.54Z"/><path class="cls-2" d="M1109,409a6.14,6.14,0,0,0,1.91-.33v7.7a20.71,20.71,0,0,1-4.82.47c-4.44,0-7.37-1.43-8.44-5.23h-.33c-3,4-8.75,5.77-13.88,5.77-7.83,0-14.46-5-14.46-13.18,0-9.52,6.45-13.05,18-14.29,8.08-.91,10.19-2.34,10.19-5.06,0-3.65-2.31-6.12-8.07-6.12a9.46,9.46,0,0,0-9.5,7.06l-9-1.76c1.86-8.05,9.12-12.88,18.75-12.88,12.79,0,17.63,6,17.63,13.78v21.47c0,2.18.93,2.6,2,2.6Zm-11.85-14.91c-1.34,1.39-5.81,2.1-10.24,2.68s-7.94,2.73-7.94,7.23c0,3.81,2.54,6.08,6.64,6.08,5.13,0,11.54-3.26,11.54-11Z"/><path class="cls-2" d="M1130.23,355.84v60.55h-9.8V355.84Z"/><path class="cls-2" d="M1166.65,356.67h10.55v50.7h32.18v9h-42.73Z"/><path class="cls-2" d="M1229.14,355.84v9.61h-9.81v-9.61Zm0,16.35v44.2h-9.81v-44.2Z"/><path class="cls-2" d="M1260,362.67c-2.92,0-5.25.68-5.25,4.91v4.61h9.48v7h-9.48v37.18h-9.8V379.21h-7.19v-7h7.19v-5.63c0-8.87,5.42-11.74,13.27-11.74a26,26,0,0,1,7.07.82v7.57a24.71,24.71,0,0,0-5.29-.55Z"/><path class="cls-2" d="M1312.93,403.41c-1.91,6.33-7.46,14-20.87,14-12.88,0-21.32-9.18-21.32-23s8.14-23.2,21.25-23.2,22.38,9.27,21.23,25.36h-32.54c.22,7.72,4.52,13.38,11.38,13.38,7.17,0,9.92-4.52,10.92-7.54ZM1292,378.61c-6.94,0-10.57,5.15-11.15,11h22.44c-.59-5.81-4.22-11-11.29-11Z"/></svg>
