<svg xmlns="http://www.w3.org/2000/svg" width="105" height="94.025" viewBox="0 0 105 94.025">
  <g id="Group_499" data-name="Group 499" transform="translate(-18953.5 -5919)">
    <g id="Page-1" transform="translate(18956 5919)">
      <g id="Artboard" transform="translate(0 0)">
        <g id="Group-4" transform="translate(0 0)">
          <g id="Group" transform="translate(0 0)">
            <g id="logo" transform="translate(0 0)">
              <path id="Path" d="M142.82,132.728l-5.231-10.359-9.915-21.943L140,96.694l2.144,12.424,2.551,10.635,4.556,7.73,3.612.685L156.616,133Z" transform="translate(-63.666 -48.218)" fill="#cfaf4e"/>
              <path id="Path-2" data-name="Path" d="M103.254,85.528,99.5,74.625,90.655,53.1,92.8,36.826l-5.093-9.657,2.273-10.76L97.089,7.58l9.243-4,8.578-.971,7.913,4.006,5.093,3.587,6.026-1.247,3.485.552-.129,6.9-2.145,2.207-7.506-1.38-1.608,2.627.933,4.414,5.361-1.247,1.48,4.834L132.474,32l.933,5.794-2.145,5.794-10.315,9.933-8.986,3.035L107.4,65.111v7.174l3.356,8.41,6.97,3.73Z" transform="translate(-43.736 -1.303)" fill="#cfaf4e"/>
              <path id="Path-3" data-name="Path" d="M58.212,133.933,49.589,112.14,60.906,99.307l11.317,10.35-1.757,7.172-2.554,2.891-7.685-.684.269,3.31,3.913,7.3,3.234.7,3.5,3.034Z" transform="translate(-24.728 -49.521)" fill="#cfaf4e"/>
              <path id="Path-4" data-name="Path" d="M14.063,120.164l.268-8.923L16.2,99.835l2.549-.681,3.481-.418,2.539-7.824,2.41-5.362,6.3-4.4,9.233-3.022,5.623-2.2,5.623-6.868,6.3,3.022L57.046,95.033l-13.657,1.78-6.427,6.593-7.637,2.066-6.823.275-1.746,7.824,4.959,4.121Z" transform="translate(-7.013 -34.441)" fill="#cfaf4e"/>
              <path id="Path-5" data-name="Path" d="M40.446,65.363l-4.179-4.068,1.5-6.788,4.8,3.969S42.7,64.266,40.446,65.363Z" transform="translate(-18.085 -27.181)" fill="#cfaf4e"/>
              <path id="Path-6" data-name="Path" d="M132.586,133c-.27-1.509-3.366-2.666-4.736-2.964l-.755-.165-.356-.705s-1.877-3.757-3.118-6.3c-1.413-2.886-1.489-5.872-.281-11.436S133.492,99.957,134.5,99.307l1.726,2.8c-2.438,1.553-8.933,6.4-9.71,10.025-1.079,4.77-1.079,7.106,0,9.232.917,1.884,2.158,4.407,2.784,5.63,1.791.507,5.88,2.027,6.473,5.4Z" transform="translate(-61.083 -49.521)" fill="#181818"/>
              <path id="Path-7" data-name="Path" d="M105.332,136.916a1.634,1.634,0,0,1-1.612-1.634,19.637,19.637,0,0,0-.591-3.876A83.874,83.874,0,0,0,97.983,118.7c-3.932-8.094-4.674-12.775-4.706-12.974a1.7,1.7,0,0,1,.587-1.564,1.6,1.6,0,0,1,1.612-.259,1.668,1.668,0,0,1,1.024,1.3c0,.077.741,4.417,4.405,12a84.727,84.727,0,0,1,5.372,13.36,22.071,22.071,0,0,1,.709,4.7,1.645,1.645,0,0,1-1.622,1.645Z" transform="translate(-46.504 -51.755)" fill="#181818"/>
              <path id="Path-8" data-name="Path" d="M142.048,139.7a13.508,13.508,0,0,0-1.584-4.142,76.994,76.994,0,0,1-4.377-9.157L131,114.051l2.953-1.3,5.136,12.349a76.725,76.725,0,0,0,4.163,8.737,16.413,16.413,0,0,1,2.033,5.523Z" transform="translate(-65.327 -56.223)" fill="#181818"/>
              <path id="Path-9" data-name="Path" d="M164.242,132.813l-.246-.634c-.331-1.112-3.311-2.5-5.789-3.125l-.491-.133-.331-.4a31.236,31.236,0,0,1-6.067-12.387c-1.218-6.227-3.269-17.2-3.29-17.313l3.14-.634c0,.111,2.072,11.119,3.29,17.269a27.711,27.711,0,0,0,5.031,10.475c1.837.512,6.537,2.124,7.477,5.137l.171.434Z" transform="translate(-73.816 -48.962)" fill="#181818"/>
              <path id="Path-10" data-name="Path" d="M14.7,116.987l-3.224-.44.484-3.472c.107-1.659.161-3.3.2-4.835.183-5.351.312-9.219,2.063-10.988,1.075-1.1,2.45-.846,3.708-.659s1.924.253,2.2-.143a10.052,10.052,0,0,0,.956-3.187,24.016,24.016,0,0,1,3.289-8.889c3.02-4.648,10.21-6.593,15.981-8.252,1.257-.352,2.45-.692,3.525-1.022,4.922-1.56,6.781-7.834,6.792-7.9l3.1.934c-.1.33-2.386,8.032-8.931,10.109-1.075.352-2.343.692-3.643,1.1-5.245,1.461-11.822,3.3-14.143,6.9a21.313,21.313,0,0,0-2.816,7.692,11.7,11.7,0,0,1-1.5,4.472c-1.451,2.011-3.751,1.67-5.266,1.45a5.344,5.344,0,0,0-1.075-.121c-.742,1.1-.871,5.263-.989,8.615-.054,1.593-.107,3.3-.215,5v.11Z" transform="translate(-5.721 -33.51)" fill="#181818"/>
              <path id="Path-11" data-name="Path" d="M27.813,143.239c-.3-.922-2.391-2.361-3.787-3.052l-1.082-.538,1.861-10.98,1.515.165c3.246.362,12.346.494,15.072-3.162,3.96-5.314,5.659-6.16,9.089-6.16,2.564,0,11.372-.417,11.458-.417l.151,3.294c-.368,0-8.97.428-11.61.428-2.034,0-2.878,0-6.492,4.853s-12.735,4.809-16.5,4.579l-.941,5.49c1.439.845,3.722,2.438,4.328,4.392Z" transform="translate(-11.441 -59.388)" fill="#181818"/>
              <path id="Path-12" data-name="Path" d="M57.407,152.731a22.4,22.4,0,0,0-1.265-3.609L52.18,140.16l3.063-1.279,3.951,8.984a23.541,23.541,0,0,1,1.52,4.465Z" transform="translate(-26.02 -69.255)" fill="#181818"/>
              <path id="Path-13" data-name="Path" d="M77.377,144.542c-.326-1.1-3.256-2.276-5.113-2.629l-.684-.122-.38-.6c-2.388-3.668-5.1-8.506-4.5-10.716.684-2.563,3.582-2.077,5.905-1.69.836.144,3.376.574,3.691.155,1.281-1.69,2.41-5.8,2.735-7.236l3.17.74c-.13.608-1.389,5.965-3.332,8.517-1.509,1.988-4.342,1.513-6.784,1.1a18.191,18.191,0,0,0-2.171-.276,37.482,37.482,0,0,0,3.636,7.015c1.878.442,6.09,1.757,6.958,4.828Z" transform="translate(-33.217 -60.691)" fill="#181818"/>
              <path id="Path-14" data-name="Path" d="M131,30.453a5.407,5.407,0,0,1-4.452-2.285,5.307,5.307,0,0,1-.463-4.333,4.984,4.984,0,0,1,2.9-3.119,4.821,4.821,0,0,1,3.662.431,1.7,1.7,0,0,1,.582,2.221,1.542,1.542,0,0,1-2.1.682,1.826,1.826,0,0,0-1.221-.177c-.116,0-.442.155-.768.85a1.413,1.413,0,0,0,0,1.535,2.4,2.4,0,0,0,2.1.872,1.606,1.606,0,0,1,1.758,1.435,1.642,1.642,0,0,1-1.368,1.844A4.839,4.839,0,0,1,131,30.453Z" transform="translate(-62.743 -10.239)" fill="#181818"/>
              <path id="Shape" d="M161.277,35.356l-.991-.231c-3.729-.891-12.651-3.42-14.817-7.643-2.4-4.663-.6-7.522,1.627-10.271,1.584-1.957,1.907-5.378,1.7-7.7l-.216-2.419,2.274.682a14.144,14.144,0,0,1,5.507,2.98c3.114-.671,7.64-1.441,9.278-.693,2.306,1.045,1.789,3.486,1.627,4.278a2.185,2.185,0,0,0,0,.22,8.654,8.654,0,0,1-.291,5.07,4.523,4.523,0,0,1-2.791,2.694l-.55.187-.539-.22c-2.748-1.1-6.261-1.584-6.843-.594a2.606,2.606,0,0,0-.075,2.826c.291.374.528.3.647.264a9.078,9.078,0,0,0,2.586-1.155l1.239-1.012,1.078,1.221c1.5,1.847,3.545,6.4.5,10.425Zm-9.214-23.6a13.22,13.22,0,0,1-2.479,7.566c-1.994,2.441-2.7,3.816-1.261,6.6,1.078,2.144,6.617,4.4,11.649,5.7a4.915,4.915,0,0,0-.108-4.553,15.344,15.344,0,0,1-2.155.825,3.729,3.729,0,0,1-4.138-1.364,5.994,5.994,0,0,1-.162-6.6c2.037-3.486,7.834-1.858,10.108-1.1.884-.792.711-2.98.6-3.442a3,3,0,0,1,0-1.869c0-.154.086-.407.108-.594a36.021,36.021,0,0,0-8.136,1.1l-1.207.286-.582-1.1a5.376,5.376,0,0,0-2.241-1.452Z" transform="translate(-71.97 -3.537)" fill="#181818"/>
              <path id="Path-15" data-name="Path" d="M117.863,56.524l-.977-3.041c0-.1-3.22-9.917-11.914-12.121-1.75-.452-3.413-.76-5.023-1.1C92.8,38.916,86.618,37.759,85.2,25.825A21.988,21.988,0,0,1,90.235,9.759,26.392,26.392,0,0,1,109.158.073c10.25-.782,12.816,5,12.88,5.245l-2.9,1.3c0-.121-1.878-3.857-9.66-3.251A23.274,23.274,0,0,0,92.8,11.885,18.644,18.644,0,0,0,88.507,25.45c1.073,9.532,5.034,10.259,12.129,11.592,1.664.309,3.381.628,5.227,1.1,7.513,1.928,11.5,8.287,13.191,11.846a69.12,69.12,0,0,1,7.513-6.083c6.1-4.408,2.995-12.76,2.866-13.113l2.995-1.223c1.47,3.824,2.544,12.309-4.014,17.036-6.784,4.9-8.587,7.306-8.587,7.328Z" transform="translate(-42.444 0)" fill="#181818"/>
              <path id="Path-16" data-name="Path" d="M11.652,95.439a5.6,5.6,0,0,1-1.522-.2,5.648,5.648,0,0,1-3.81-5.966C6.5,85.562,9.576,81.143,17.676,79.8c1.607-.166,5.8-1.1,7.152-3.635l2.8,1.6c-2.448,4.585-9.26,5.292-9.579,5.325-6.12,1.005-8.461,3.944-8.578,6.352a2.422,2.422,0,0,0,1.458,2.607c2.363.641,8.312-2.331,11.782-4.662l1.735,2.784C23.593,90.765,16.462,95.439,11.652,95.439Z" transform="translate(-3.137 -37.978)" fill="#181818"/>
              <path id="Shape-2" data-name="Shape" d="M40.484,65.749l-1.119-.35a8.725,8.725,0,0,1-5.12-4.745c-1.056-2.613-.633-5.707,1.193-9.217l.739-1.41,1.383.733c.169.087,4.148,2.252,5.183,6.4a9.52,9.52,0,0,1-1.6,7.588ZM37.475,54.63a6.515,6.515,0,0,0-.3,4.745,4.929,4.929,0,0,0,2.006,2.307,5.64,5.64,0,0,0,.5-3.728,6.778,6.778,0,0,0-2.206-3.324Z" transform="translate(-16.793 -24.947)" fill="#181818"/>
              <path id="Path-17" data-name="Path" d="M104.561,52.155a1.611,1.611,0,0,1-1.355-.755c-10.386-16.374,2.58-26.742,2.71-26.831a1.58,1.58,0,0,1,2.212.358,1.7,1.7,0,0,1-.266,2.3c-.441.355-10.655,8.648-1.957,22.368a1.71,1.71,0,0,1-.462,2.309,1.638,1.638,0,0,1-.882.255Z" transform="translate(-49.457 -12.101)" fill="#181818"/>
              <path id="Path-18" data-name="Path" d="M132.189,69.881h-.163a1.611,1.611,0,0,1-1.1-.592,1.643,1.643,0,0,1-.356-1.2,11.585,11.585,0,0,0-4.468-9.418,17.854,17.854,0,0,1-6.571-12.155,1.652,1.652,0,0,1,.43-1.181A1.62,1.62,0,0,1,121.1,44.8a1.585,1.585,0,0,1,1.171.416,1.617,1.617,0,0,1,.52,1.139,14.536,14.536,0,0,0,5.357,9.757A14.808,14.808,0,0,1,133.8,68.424,1.632,1.632,0,0,1,132.189,69.881Z" transform="translate(-59.606 -22.34)" fill="#181818"/>
              <path id="Path-19" data-name="Path" d="M160.777,81.43a1.606,1.606,0,0,1-.74-.175,1.63,1.63,0,0,1-.74-2.184c2.994-5.92-1.613-10.66-1.812-10.857a1.627,1.627,0,0,1-.529-1.629,1.648,1.648,0,0,1,1.226-1.207,1.668,1.668,0,0,1,1.645.531c2.209,2.184,5.689,8.181,2.43,14.625A1.648,1.648,0,0,1,160.777,81.43Z" transform="translate(-78.245 -32.58)" fill="#181818"/>
              <rect id="Rectangle" width="100" height="7.674" rx="3.837" transform="translate(0 83.851)" fill="#cfaf4e" stroke="#181818" stroke-width="5"/>
            </g>
          </g>
        </g>
      </g>
    </g>
  </g>
</svg>
