<svg height="100.033" viewBox="0 0 67.396 100.033" width="67.396" xmlns="http://www.w3.org/2000/svg" xmlns:xlink="http://www.w3.org/1999/xlink"><clipPath id="a"><path clip-rule="evenodd" d="m0 10.933c.291-4.462-.8-9.612 5.776-10.933 4.868.143 7.437 3.506 6.807 11.345z"/></clipPath><clipPath id="b"><path clip-rule="evenodd" d="m5.414 23.867 22.437-4.167-1.659-19.7-26.192 11.151z"/></clipPath><clipPath id="c"><path d="m0 0h33.651v30.674h-33.651z"/></clipPath><clipPath id="d"><path clip-rule="evenodd" d="m4.1 22.485-3.355-9.077h2.609l-3.168-7.013 2.982.205-3.168-6.6 41.742.206-2.982 6.394 3.354.206c-5.446 10.341-8.75 13.3-17.687 13.007z"/></clipPath><clipPath id="e"><path clip-rule="evenodd" d="m10.059 13.82c-13.359-3.074-13.469-13.22 0-13.82z"/></clipPath><g fill-rule="evenodd"><path d="m3481.222-147.959c13.355 3.074 13.469 13.216 0 13.82z" fill="#ff009e" transform="translate(-3423.885 173.048)"/><path d="m3182.8-42.486a8.349 8.349 0 0 0 -7.054 8.348s-2.221.039-2.459 0a9.292 9.292 0 0 1 5.565-9.707c-2.472-1.3-4.775-1.3-6.73 1.359l-1.747-1.618c1.829-2.076 3.821-3.988 9.707-2.006-1.531-4.183-4.223-4.74-7.119-4.659l.065-2.524c7.736.086 8.884 4.218 9.665 8.714z" fill="#8c00f1" transform="translate(-3170.374 96.087)"/><path d="m3372.473-246c8.927-12.44 13.651-18.326 10.425-21.034-3.383-2.84-8.821 2.8-21.28 12.69l5.427 4.172z" fill="#008298" transform="translate(-3324.433 270.528)"/><path d="m3481.222-147.959c13.355 3.074 13.469 13.216 0 13.82z" fill="#98005e" transform="translate(-3423.885 173.048)"/><path d="m3242.367 198.925c-.291 4.461.8 9.612-5.776 10.933-4.868-.143-7.437-3.506-6.807-11.345z" fill="#580098" transform="translate(-3218.699 -109.824)"/><path d="m3224.285 103.237 4.538 9.9-3.3.206 3.3 6.807-19.184-.206 3.3-6.6h-3.507l6.188-11.552z" fill="#98005e" transform="translate(-3202.852 -29.402)"/><path d="m3405.2 197.7c-.291 4.461.8 9.612-5.776 10.933-4.868-.143-7.437-3.506-6.807-11.345z" fill="#580098" transform="translate(-3351.358 -108.806)"/><path d="m3393.278 118.928h-18.565l3.3-6.395-3.3-.206 5.364-11.758 9.282 1.031 3.713 10.52h-2.682z" fill="#98005e" transform="translate(-3336.389 -28.384)"/><path d="m3257.219-2.272 4.108 9.076h-3.2l3.88 7.014-3.652-.206 3.88 6.6-51.125-.206 3.652-6.395-4.108-.206c6.671-10.341 8.911-13.291 19.857-13z" fill="#988400" transform="translate(-3203.871 54.748)"/><path d="m3343.189-64.743h-28.26l3.3-6.6h-3.507l4.744-9.283h20.834l3.3 9.283h-3.507z" fill="#008298" transform="translate(-3285.439 118.206)"/></g><g clip-path="url(#a)" transform="matrix(-1 0 0 -1 53.839 99.827)"><path d="m0 10.933c.228-4.462-.624-9.612 4.525-10.933 3.814.143 5.826 3.506 5.333 11.345z" fill="#8c00f1" fill-rule="evenodd" transform="translate(2.746)"/></g><path d="m3388.987 118.928h-14.275l2.538-6.395-2.538-.206 4.124-11.758 7.137 1.031 2.855 10.52h-2.062z" fill="#ff009e" fill-rule="evenodd" transform="translate(-3336.736 -28.384)"/><g clip-path="url(#a)" transform="matrix(-1 0 0 -1 23.668 100.033)"><path d="m0 10.933c.228-4.462-.624-9.612 4.525-10.933 3.814.143 5.826 3.506 5.333 11.345z" fill="#8c00f1" fill-rule="evenodd" transform="translate(2.746)"/></g><path d="m3224.1 119.057h-14.663l2.607-6.44-2.607-.208 4.236-11.841 7.332 1.039 2.933 10.594h-2.118z" fill="#ff009e" fill-rule="evenodd" transform="translate(-3202.852 -28.384)"/><path d="m3248.673-2.272 3.354 9.076h-2.609l3.168 7.014-2.982-.206 3.168 6.6-41.742-.206 2.981-6.395-3.354-.206c5.443-10.341 8.751-13.305 17.688-13.005z" fill="#ffe001" fill-rule="evenodd" transform="translate(-3203.87 54.748)"/><path d="m3338.141-64.743h-23.249l2.715-6.6h-2.885l3.9-9.283h17.14l2.715 9.283h-2.877z" fill="#00bedd" fill-rule="evenodd" transform="translate(-3287.281 118.206)"/><circle cx="3.063" cy="3.063" fill="#fff" r="3.063" transform="matrix(-1 0 0 -1 50.241 32.72)"/><circle cx="1.532" cy="1.532" fill="#181818" r="1.532" transform="matrix(-1 0 0 -1 48.653 31.243)"/><g clip-path="url(#b)" transform="matrix(-.92009518 -.39169486 .39169486 -.92009518 52.517 49.963)"><rect fill="#181818" height="1.155" rx=".578" transform="translate(-7.546 11.653)" width="13.862"/></g><g clip-path="url(#c)" transform="matrix(-1 0 0 -1 35.723 78.046)"><path d="m42.081 20.932 3.713-7.523h-2.888l3.507-7.014-3.3.206 3.507-6.601-46.207.206 3.3 6.394-3.713.207c6.029 10.342 8.053 11.738 17.946 11.443l12 1.043z" fill="#ffe000" fill-rule="evenodd" transform="translate(-18.719 3.557)"/></g><g clip-path="url(#d)" transform="matrix(-1 0 0 -1 48.902 74.961)"><path d="m7.168 2.2-2.2 2.2-1.876-1.868-1.876-1.866-.608.634-.608.635 2.482 2.474 2.482 2.475 2.096-2.084a17.461 17.461 0 0 1 2.313-2.09 17.457 17.457 0 0 1 2.312 2.09l2.1 2.086 2.147-2.139 2.147-2.139 2.1 2.086a17.458 17.458 0 0 0 2.313 2.086 17.455 17.455 0 0 0 2.308-2.088l2.1-2.086 2.147 2.139 2.147 2.139 2.1-2.086a17.46 17.46 0 0 1 2.3-2.088 17.461 17.461 0 0 1 2.313 2.09l2.093 2.084 2.482-2.474 2.482-2.474-.605-.636-.608-.634-1.875 1.865-1.876 1.869-2.205-2.2-2.206-2.2-2.2 2.2-2.2 2.2-2.133-2.125-2.134-2.125-2.2 2.085-2.2 2.085-2.161-2.16-2.167-2.16-2.207 2.2-2.206 2.2-2.207-2.2-2.207-2.2-2.2 2.2z" fill="#181818" transform="translate(-.463 7.023)"/></g><g clip-path="url(#e)" transform="matrix(-1 0 0 -1 67.396 38.909)"><path d="m11.613 15.956c-15.418-3.55-15.55-15.256 0-15.956z" fill="#ff009e" fill-rule="evenodd" transform="translate(-.259 1.553)"/></g><path d="m3354.457-260.569c2.509-15.1 4.146-22.472.055-23.476-4.29-1.052-6.675 6.41-13.479 20.788l6.712 1.344z" fill="#00bedd" fill-rule="evenodd" transform="translate(-3309.207 284.142)"/><path d="m3257.219-2.272 4.108 9.076h-3.2l3.88 7.014-3.652-.206 3.88 6.6-51.125-.206 3.652-6.395-4.108-.206c6.671-10.341 8.911-13.291 19.857-13z" fill="#988400" fill-rule="evenodd" transform="translate(-3203.871 54.748)"/><path d="m3343.189-64.743h-28.26l3.3-6.6h-3.507l4.744-9.283h20.834l3.3 9.283h-3.507z" fill="#008298" fill-rule="evenodd" transform="translate(-3285.439 118.206)"/><path d="m3248.673-2.272 3.354 9.076h-2.609l3.168 7.014-2.982-.206 3.168 6.6-41.742-.206 2.981-6.395-3.354-.206c5.443-10.341 8.751-13.305 17.688-13.005z" fill="#ffe001" fill-rule="evenodd" transform="translate(-3203.87 54.748)"/><path d="m3338.141-64.743h-23.249l2.715-6.6h-2.885l3.9-9.283h17.14l2.715 9.283h-2.877z" fill="#00bedd" fill-rule="evenodd" transform="translate(-3287.281 118.206)"/><path d="m3340.74-172.395-22.278-4.951-5.563 11.071 3.081.06-3.707 7.64h28.467v-13.821z" fill="#ffe000" fill-rule="evenodd" transform="translate(-3284.872 197.133)"/><circle cx="3.063" cy="3.063" fill="#fff" r="3.063" transform="matrix(-1 0 0 -1 50.241 32.72)"/><circle cx="1.532" cy="1.532" fill="#181818" r="1.532" transform="matrix(-1 0 0 -1 48.653 31.243)"/><g clip-path="url(#b)" transform="matrix(-.92009518 -.39169486 .39169486 -.92009518 52.517 49.963)"><rect fill="#181818" height="1.155" rx=".578" transform="translate(-7.546 11.653)" width="13.862"/></g><g clip-path="url(#c)" transform="matrix(-1 0 0 -1 35.723 78.046)"><path d="m42.081 20.932 3.713-7.523h-2.888l3.507-7.014-3.3.206 3.507-6.601-46.207.206 3.3 6.394-3.713.207c6.029 10.342 8.053 11.738 17.946 11.443l12 1.043z" fill="#ffe000" fill-rule="evenodd" transform="translate(-18.719 3.557)"/></g><g clip-path="url(#d)" transform="matrix(-1 0 0 -1 48.902 74.961)"><path d="m7.168 2.2-2.2 2.2-1.876-1.868-1.876-1.866-.608.634-.608.635 2.482 2.474 2.482 2.475 2.096-2.084a17.461 17.461 0 0 1 2.313-2.09 17.457 17.457 0 0 1 2.312 2.09l2.1 2.086 2.147-2.139 2.147-2.139 2.1 2.086a17.458 17.458 0 0 0 2.313 2.086 17.455 17.455 0 0 0 2.308-2.088l2.1-2.086 2.147 2.139 2.147 2.139 2.1-2.086a17.46 17.46 0 0 1 2.3-2.088 17.461 17.461 0 0 1 2.313 2.09l2.093 2.084 2.482-2.474 2.482-2.474-.605-.636-.608-.634-1.875 1.865-1.876 1.869-2.205-2.2-2.206-2.2-2.2 2.2-2.2 2.2-2.133-2.125-2.134-2.125-2.2 2.085-2.2 2.085-2.161-2.16-2.167-2.16-2.207 2.2-2.206 2.2-2.207-2.2-2.207-2.2-2.2 2.2z" fill="#181818" transform="translate(-.463 7.023)"/></g></svg>