<svg xmlns="http://www.w3.org/2000/svg" width="99.916" height="36.516" viewBox="0 0 99.916 36.516">
  <path id="actyx-logo" d="M58.233,33.669H53.741V29.311a.316.316,0,0,0-.333-.316H48.817a.316.316,0,0,0-.316.316v4.359H45.922a.316.316,0,0,0-.316.316v4.159a.333.333,0,0,0,.316.316H48.5v8.867c0,7.2,5.823,8.019,8.817,8.019h.915a.316.316,0,0,0,.316-.316V50.871a.316.316,0,0,0-.316-.316h-.848a3.527,3.527,0,0,1-3.56-3.976V38.461h4.409a.333.333,0,0,0,.316-.316V33.985A.316.316,0,0,0,58.233,33.669ZM16.31,28.08a.333.333,0,0,0-.3-.2H10.687a.333.333,0,0,0-.3.2L.006,54.914a.333.333,0,0,0,.3.433H5.3a.316.316,0,0,0,.3-.216L7.16,50.538H19.337l1.58,4.592a.316.316,0,0,0,.3.216h5.107a.316.316,0,0,0,.3-.433Zm-7.4,17.6,4.409-12.843,4.409,12.843ZM43.26,48.742a.316.316,0,0,0-.482-.083,9.765,9.765,0,0,1-6.022,2.462A6.521,6.521,0,0,1,30.1,44.383a6.372,6.372,0,0,1,6.521-6.654,8.318,8.318,0,0,1,5.324,2.063.333.333,0,0,0,.482,0l2.013-3.128a.3.3,0,0,0,0-.4,11.2,11.2,0,0,0-8.069-3.011,11.246,11.246,0,1,0,0,22.475A12.411,12.411,0,0,0,45.04,52.4a.333.333,0,0,0,0-.383Zm56.563,6.122L93,44.3l6.654-10.148a.316.316,0,0,0-.266-.482H94a.316.316,0,0,0-.283.15L90.39,39.542c-.333.549-.715,1.348-.715,1.348a13.642,13.642,0,0,0-.715-1.348l-3.327-5.723a.333.333,0,0,0-.283-.15h-9.7a.316.316,0,0,0-.3.216L71.192,46.213c-.366,1.115-.682,2.046-.7,2.08s-.383-1.065-.8-2.179L65.2,33.869a.333.333,0,0,0-.3-.2H59.53a.316.316,0,0,0-.3.433L68.1,55.346l-.383,1.148a4.608,4.608,0,0,1-4.026,3.094H61.177a.333.333,0,0,0-.316.333V64.08a.316.316,0,0,0,.316.316h2.745a8.435,8.435,0,0,0,7.786-5.939l8.934-23.124L86.514,44.3l-7,10.564a.316.316,0,0,0,.266.482h5.157a.333.333,0,0,0,.283-.15l3.86-6.255a8.8,8.8,0,0,0,.582-1.148,9.982,9.982,0,0,0,.6,1.148L93.984,55.2a.283.283,0,0,0,.266.15h5.174a.316.316,0,0,0,.4-.482Z" transform="translate(0.009 -27.88)" fill="#052437"/>
</svg>
